<svg width="60" height="61" viewBox="0 0 60 61" fill="none" xmlns="http://www.w3.org/2000/svg">
<path d="M15.7727 9.38316C13.7193 10.0453 12.1127 10.7723 10.133 12.225C9.87633 12.47 9.62471 12.7203 9.37832 12.9757C9.40644 13.042 9.4498 13.1239 9.5139 13.2393C9.63297 13.454 9.83816 13.7108 10.0963 13.9647C9.70067 14.5998 9.32931 15.2496 8.98305 15.9129C8.55367 15.5566 8.16836 15.1602 7.85875 14.7152C6.96094 15.8344 6.15971 17.0277 5.46367 18.2824C5.50996 18.4741 5.64613 18.6832 5.90664 18.9632C6.21789 19.2976 6.7041 19.6429 7.26906 19.9375C7.03187 20.6544 6.82844 21.3677 6.66133 22.0797C5.78945 21.6836 4.99199 21.1694 4.36516 20.5161C3.65845 22.1597 3.13171 23.875 2.79414 25.632C2.95058 25.9173 3.22937 26.1785 3.65101 26.4561C4.24539 26.8475 5.09945 27.1681 6.02781 27.3534C6.02254 28.1077 6.05711 28.856 6.12297 29.5945C4.78621 29.3984 3.49738 28.9795 2.44621 28.2871C2.44035 28.2832 2.43379 28.2801 2.42793 28.2761C2.2778 30.0687 2.32074 31.8723 2.55601 33.6557C2.82672 34.0636 3.27976 34.3538 3.95488 34.586C4.82277 34.8843 6.00238 34.9779 7.20332 34.8569C7.43769 35.5743 7.7043 36.2784 8.00137 36.9663C6.36426 37.2121 4.69234 37.1564 3.24437 36.6587C3.20488 36.6451 3.16644 36.6291 3.12719 36.6147C3.59065 38.417 4.25267 40.1623 5.10109 41.8186C5.51746 42.1471 6.07961 42.3126 6.82609 42.3642C7.91594 42.4396 9.30391 42.1614 10.6274 41.6209C11.0614 42.2354 11.5208 42.8317 12.0044 43.408C10.297 44.1949 8.44656 44.6589 6.72355 44.5505C7.88997 46.2637 9.26121 47.828 10.8068 49.2087C11.3061 49.3782 11.8967 49.3804 12.6085 49.2416C13.7335 49.0221 15.0524 48.3739 16.2448 47.4837C16.2457 47.4843 16.2479 47.4832 16.2486 47.4837C16.851 47.9493 17.4729 48.3891 18.1125 48.8021C16.7091 49.9634 15.1096 50.8759 13.4801 51.2888C14.8569 52.2204 16.3228 53.0128 17.8562 53.6544C18.4348 53.7039 19.0621 53.5419 19.7716 53.1966C20.6706 52.7589 21.6208 51.9952 22.4704 51.0545C24.4668 51.8493 26.5405 52.3693 28.6301 52.5668L28.8387 50.3841C27.1667 50.2259 25.489 49.8252 23.851 49.2195C24.6576 47.9178 25.2115 46.5039 25.3674 45.3011C25.5054 44.2331 25.3771 43.4077 24.9242 42.7889C23.9773 42.6037 23.0621 42.3271 22.1849 41.9686C22.1648 42.7268 21.985 43.4905 21.6904 44.2061C21.2515 45.2729 20.5748 46.2918 19.7533 47.2202C19.1234 46.8327 18.5112 46.4173 17.9185 45.9751C18.6943 45.1334 19.3157 44.2208 19.6653 43.3712C20.1113 42.2877 20.1543 41.4284 19.7385 40.6981C18.8305 40.1172 17.9804 39.4399 17.1934 38.6802C16.9857 39.1841 16.7028 39.661 16.3694 40.0974C15.7277 40.9371 14.8961 41.6806 13.9596 42.3129C13.4768 41.7597 13.0161 41.1875 12.5827 40.5916C13.4208 40.0415 14.1408 39.408 14.63 38.7679C15.2204 37.9952 15.4761 37.3136 15.3879 36.6475C14.7981 35.8691 14.2692 35.0464 13.8059 34.1866C13.5378 34.502 13.237 34.7881 12.9086 35.0401C12.1166 35.6465 11.1745 36.1129 10.1657 36.4498C9.8616 35.783 9.5848 35.1024 9.34539 34.4064C10.2157 34.1246 11.0012 33.7405 11.5755 33.3005C12.243 32.7894 12.607 32.2992 12.6925 31.7478C12.3332 30.797 12.0431 29.8215 11.8246 28.8289C11.6057 28.9548 11.3781 29.065 11.1435 29.1586C10.2705 29.5039 9.29781 29.6782 8.2982 29.7152C8.21905 28.9866 8.17864 28.2543 8.17715 27.5214C8.99242 27.4906 9.75496 27.353 10.3381 27.1224C10.8771 26.9091 11.2281 26.6771 11.433 26.39C11.3107 25.2297 11.2789 24.0616 11.3377 22.8963C11.2615 22.9085 11.1865 22.9174 11.1106 22.9256C10.3343 23.0105 9.52199 22.9432 8.71926 22.7682C8.8798 22.0674 9.07902 21.3608 9.31621 20.6514C9.88691 20.7608 10.4339 20.7948 10.8725 20.7468C11.1788 20.7133 11.4036 20.6582 11.5756 20.5821C11.7366 19.55 11.9703 18.5305 12.2752 17.5314C11.7851 17.4452 11.3044 17.2863 10.8396 17.0773C11.1792 16.4223 11.5445 15.781 11.9346 15.1549C12.2175 15.2677 12.4873 15.35 12.7183 15.3857C12.848 15.4057 12.9553 15.4168 13.0443 15.4186C13.2723 14.8748 13.5156 14.3439 13.7805 13.8291C14.4716 12.4461 15.2353 10.9873 15.7727 9.3834V9.38316ZM44.4104 9.38316C44.9474 10.987 45.7111 12.4459 46.4025 13.829C46.6697 14.3489 46.9163 14.8791 47.142 15.4183C47.2301 15.4164 47.3365 15.4051 47.4643 15.3855C47.6963 15.3496 47.9677 15.2683 48.2518 15.1546C48.642 15.7808 49.0073 16.4222 49.3468 17.0772C48.8808 17.2865 48.398 17.4452 47.9077 17.5314C48.208 18.5146 48.4436 19.5354 48.607 20.5818C48.7797 20.6589 49.0059 20.7131 49.3139 20.7468C49.7525 20.7949 50.2995 20.7609 50.8702 20.6516C51.1024 21.3483 51.3004 22.056 51.4635 22.7721C50.6623 22.9463 49.8508 23.0107 49.0758 22.9259C48.9988 22.9181 48.9219 22.9083 48.8453 22.8966C48.9053 24.0618 48.8747 25.2298 48.7537 26.3902C48.9588 26.6773 49.3097 26.9094 49.8488 27.1227C50.4309 27.3529 51.192 27.4906 52.0057 27.5218C52.0042 28.2547 51.964 28.9869 51.885 29.7155C50.8866 29.678 49.9154 29.5037 49.0432 29.1589C48.8087 29.0652 48.581 28.955 48.362 28.8291C48.1433 29.8204 47.8532 30.7947 47.4941 31.7442C47.5779 32.2973 47.9389 32.7886 48.6074 33.3007C49.1821 33.7405 49.9674 34.1245 50.8379 34.4064C50.5983 35.1025 50.3216 35.783 50.0175 36.45C49.01 36.113 48.0694 35.6458 47.2783 35.0402C46.9486 34.7884 46.6466 34.5023 46.3773 34.1867C45.9074 35.0565 45.3789 35.8794 44.7953 36.6477C44.7063 37.3135 44.9629 37.9955 45.5535 38.7682C46.042 39.4077 46.7621 40.042 47.6004 40.592C47.1672 41.1879 46.7063 41.7598 46.2235 42.3131C45.2871 41.6807 44.4556 40.9373 43.8139 40.0975C43.4813 39.6622 43.2005 39.1861 42.9936 38.6838C42.2072 39.4429 41.3557 40.1177 40.4482 40.698C40.0326 41.4284 40.0756 42.2877 40.5216 43.3713C40.8714 44.2209 41.4929 45.1334 42.2686 45.9752C41.6747 46.4173 41.0612 46.8328 40.4302 47.2202C39.6095 46.2918 38.9356 45.2729 38.4966 44.2061C38.2021 43.4906 38.0223 42.7269 38.0021 41.9688C37.1167 42.3309 36.1981 42.6056 35.2593 42.7891C34.8054 43.4078 34.678 44.2333 34.8163 45.3012C34.9718 46.5041 35.5288 47.918 36.3359 49.2198C34.6983 49.8254 33.0203 50.2261 31.3482 50.3843L31.5532 52.5669C33.6439 52.3692 35.7188 51.8502 37.7166 51.0545C38.5662 51.9952 39.5164 52.7589 40.4154 53.1966C41.1251 53.542 41.7523 53.7041 42.3309 53.6544C43.8644 53.0129 45.3303 52.2205 46.7069 51.2887C45.0784 50.8762 43.477 49.9653 42.0745 48.8055C42.7122 48.3949 43.333 47.9509 43.9384 47.4836C45.1314 48.3747 46.4528 49.0218 47.5785 49.2414C48.2882 49.38 48.8781 49.3803 49.3766 49.2121C50.9237 47.8304 52.2961 46.2649 53.4636 44.5504C51.7403 44.6588 49.8863 44.1948 48.179 43.4078C48.6618 42.8321 49.1242 42.2371 49.5595 41.6207C50.8831 42.161 52.2709 42.4394 53.361 42.3639C54.1073 42.3124 54.6695 42.1469 55.0857 41.8183C55.9341 40.1621 56.5961 38.4168 57.0596 36.6145C57.0203 36.6289 56.9819 36.645 56.9424 36.6584C55.4945 37.1561 53.8225 37.2119 52.1853 36.9661C52.4836 36.2755 52.75 35.5717 52.9837 34.8567C54.1832 34.977 55.3614 34.8836 56.2284 34.5856C56.9039 34.3536 57.3592 34.0636 57.6309 33.6555C57.8649 31.8719 57.9067 30.0684 57.7555 28.2759C57.7505 28.2792 57.7459 28.2835 57.7409 28.2869C56.6897 28.9793 55.4007 29.3982 54.064 29.5943C54.13 28.8557 54.1643 28.1075 54.1592 27.353C55.0873 27.1677 55.9416 26.8471 56.5357 26.4557C56.9568 26.1785 57.2325 25.9162 57.3892 25.6317C57.0514 23.8748 56.5246 22.1595 55.818 20.5159C55.1914 21.1686 54.3961 21.683 53.5255 22.0796C53.3549 21.3568 53.152 20.6419 52.9176 19.9372C53.4807 19.6427 53.9655 19.2969 54.2762 18.963C54.5355 18.6846 54.6749 18.4767 54.7231 18.2857C54.0271 17.0298 53.2258 15.8353 52.3278 14.715C52.0182 15.1598 51.6329 15.5564 51.2037 15.9126C50.8574 15.2493 50.486 14.5994 50.0904 13.9643C50.3492 13.7104 50.5537 13.4533 50.6726 13.2389C50.7357 13.1252 50.7804 13.0448 50.8081 12.9789C50.5606 12.7223 50.3079 12.4708 50.0501 12.2246C48.0705 10.772 46.4638 10.0449 44.4105 9.38281L44.4104 9.38316ZM17.9073 16.5243L20.7309 31.7257H39.9609L42.6452 17.1358L35.8557 24.5772L30.5859 16.7039L25.3124 24.5773L17.9076 16.5245L17.9073 16.5243ZM21.1374 33.9157L21.5549 36.1677H39.1441L39.5581 33.9155H21.1376L21.1374 33.9157Z" fill="#FB5D2C"/>
<path d="M15.7727 9.38316C13.7193 10.0453 12.1127 10.7723 10.133 12.225C9.87633 12.47 9.62471 12.7203 9.37832 12.9757C9.40644 13.042 9.4498 13.1239 9.5139 13.2393C9.63297 13.454 9.83816 13.7108 10.0963 13.9647C9.70067 14.5998 9.32931 15.2496 8.98305 15.9129C8.55367 15.5566 8.16836 15.1602 7.85875 14.7152C6.96094 15.8344 6.15971 17.0277 5.46367 18.2824C5.50996 18.4741 5.64613 18.6832 5.90664 18.9632C6.21789 19.2976 6.7041 19.6429 7.26906 19.9375C7.03187 20.6544 6.82844 21.3677 6.66133 22.0797C5.78945 21.6836 4.99199 21.1694 4.36516 20.5161C3.65845 22.1597 3.13171 23.875 2.79414 25.632C2.95058 25.9173 3.22937 26.1785 3.65101 26.4561C4.24539 26.8475 5.09945 27.1681 6.02781 27.3534C6.02254 28.1077 6.05711 28.856 6.12297 29.5945C4.78621 29.3984 3.49738 28.9795 2.44621 28.2871C2.44035 28.2832 2.43379 28.2801 2.42793 28.2761C2.2778 30.0687 2.32074 31.8723 2.55601 33.6557C2.82672 34.0636 3.27976 34.3538 3.95488 34.586C4.82277 34.8843 6.00238 34.9779 7.20332 34.8569C7.43769 35.5743 7.7043 36.2784 8.00137 36.9663C6.36426 37.2121 4.69234 37.1564 3.24437 36.6587C3.20488 36.6451 3.16644 36.6291 3.12719 36.6147C3.59065 38.417 4.25267 40.1623 5.10109 41.8186C5.51746 42.1471 6.07961 42.3126 6.82609 42.3642C7.91594 42.4396 9.30391 42.1614 10.6274 41.6209C11.0614 42.2354 11.5208 42.8317 12.0044 43.408C10.297 44.1949 8.44656 44.6589 6.72355 44.5505C7.88997 46.2637 9.26121 47.828 10.8068 49.2087C11.3061 49.3782 11.8967 49.3804 12.6085 49.2416C13.7335 49.0221 15.0524 48.3739 16.2448 47.4837C16.2457 47.4843 16.2479 47.4832 16.2486 47.4837C16.851 47.9493 17.4729 48.3891 18.1125 48.8021C16.7091 49.9634 15.1096 50.8759 13.4801 51.2888C14.8569 52.2204 16.3228 53.0128 17.8562 53.6544C18.4348 53.7039 19.0621 53.5419 19.7716 53.1966C20.6706 52.7589 21.6208 51.9952 22.4704 51.0545C24.4668 51.8493 26.5405 52.3693 28.6301 52.5668L28.8387 50.3841C27.1667 50.2259 25.489 49.8252 23.851 49.2195C24.6576 47.9178 25.2115 46.5039 25.3674 45.3011C25.5054 44.2331 25.3771 43.4077 24.9242 42.7889C23.9773 42.6037 23.0621 42.3271 22.1849 41.9686C22.1648 42.7268 21.985 43.4905 21.6904 44.2061C21.2515 45.2729 20.5748 46.2918 19.7533 47.2202C19.1234 46.8327 18.5112 46.4173 17.9185 45.9751C18.6943 45.1334 19.3157 44.2208 19.6653 43.3712C20.1113 42.2877 20.1543 41.4284 19.7385 40.6981C18.8305 40.1172 17.9804 39.4399 17.1934 38.6802C16.9857 39.1841 16.7028 39.661 16.3694 40.0974C15.7277 40.9371 14.8961 41.6806 13.9596 42.3129C13.4768 41.7597 13.0161 41.1875 12.5827 40.5916C13.4208 40.0415 14.1408 39.408 14.63 38.7679C15.2204 37.9952 15.4761 37.3136 15.3879 36.6475C14.7981 35.8691 14.2692 35.0464 13.8059 34.1866C13.5378 34.502 13.237 34.7881 12.9086 35.0401C12.1166 35.6465 11.1745 36.1129 10.1657 36.4498C9.8616 35.783 9.5848 35.1024 9.34539 34.4064C10.2157 34.1246 11.0012 33.7405 11.5755 33.3005C12.243 32.7894 12.607 32.2992 12.6925 31.7478C12.3332 30.797 12.0431 29.8215 11.8246 28.8289C11.6057 28.9548 11.3781 29.065 11.1435 29.1586C10.2705 29.5039 9.29781 29.6782 8.2982 29.7152C8.21905 28.9866 8.17864 28.2543 8.17715 27.5214C8.99242 27.4906 9.75496 27.353 10.3381 27.1224C10.8771 26.9091 11.2281 26.6771 11.433 26.39C11.3107 25.2297 11.2789 24.0616 11.3377 22.8963C11.2615 22.9085 11.1865 22.9174 11.1106 22.9256C10.3343 23.0105 9.52199 22.9432 8.71926 22.7682C8.8798 22.0674 9.07902 21.3608 9.31621 20.6514C9.88691 20.7608 10.4339 20.7948 10.8725 20.7468C11.1788 20.7133 11.4036 20.6582 11.5756 20.5821C11.7366 19.55 11.9703 18.5305 12.2752 17.5314C11.7851 17.4452 11.3044 17.2863 10.8396 17.0773C11.1792 16.4223 11.5445 15.781 11.9346 15.1549C12.2175 15.2677 12.4873 15.35 12.7183 15.3857C12.848 15.4057 12.9553 15.4168 13.0443 15.4186C13.2723 14.8748 13.5156 14.3439 13.7805 13.8291C14.4716 12.4461 15.2353 10.9873 15.7727 9.3834V9.38316ZM44.4104 9.38316C44.9474 10.987 45.7111 12.4459 46.4025 13.829C46.6697 14.3489 46.9163 14.8791 47.142 15.4183C47.2301 15.4164 47.3365 15.4051 47.4643 15.3855C47.6963 15.3496 47.9677 15.2683 48.2518 15.1546C48.642 15.7808 49.0073 16.4222 49.3468 17.0772C48.8808 17.2865 48.398 17.4452 47.9077 17.5314C48.208 18.5146 48.4436 19.5354 48.607 20.5818C48.7797 20.6589 49.0059 20.7131 49.3139 20.7468C49.7525 20.7949 50.2995 20.7609 50.8702 20.6516C51.1024 21.3483 51.3004 22.056 51.4635 22.7721C50.6623 22.9463 49.8508 23.0107 49.0758 22.9259C48.9988 22.9181 48.9219 22.9083 48.8453 22.8966C48.9053 24.0618 48.8747 25.2298 48.7537 26.3902C48.9588 26.6773 49.3097 26.9094 49.8488 27.1227C50.4309 27.3529 51.192 27.4906 52.0057 27.5218C52.0042 28.2547 51.964 28.9869 51.885 29.7155C50.8866 29.678 49.9154 29.5037 49.0432 29.1589C48.8087 29.0652 48.581 28.955 48.362 28.8291C48.1433 29.8204 47.8532 30.7947 47.4941 31.7442C47.5779 32.2973 47.9389 32.7886 48.6074 33.3007C49.1821 33.7405 49.9674 34.1245 50.8379 34.4064C50.5983 35.1025 50.3216 35.783 50.0175 36.45C49.01 36.113 48.0694 35.6458 47.2783 35.0402C46.9486 34.7884 46.6466 34.5023 46.3773 34.1867C45.9074 35.0565 45.3789 35.8794 44.7953 36.6477C44.7063 37.3135 44.9629 37.9955 45.5535 38.7682C46.042 39.4077 46.7621 40.042 47.6004 40.592C47.1672 41.1879 46.7063 41.7598 46.2235 42.3131C45.2871 41.6807 44.4556 40.9373 43.8139 40.0975C43.4813 39.6622 43.2005 39.1861 42.9936 38.6838C42.2072 39.4429 41.3557 40.1177 40.4482 40.698C40.0326 41.4284 40.0756 42.2877 40.5216 43.3713C40.8714 44.2209 41.4929 45.1334 42.2686 45.9752C41.6747 46.4173 41.0612 46.8328 40.4302 47.2202C39.6095 46.2918 38.9356 45.2729 38.4966 44.2061C38.2021 43.4906 38.0223 42.7269 38.0021 41.9688C37.1167 42.3309 36.1981 42.6056 35.2593 42.7891C34.8054 43.4078 34.678 44.2333 34.8163 45.3012C34.9718 46.5041 35.5288 47.918 36.3359 49.2198C34.6983 49.8254 33.0203 50.2261 31.3482 50.3843L31.5532 52.5669C33.6439 52.3692 35.7188 51.8502 37.7166 51.0545C38.5662 51.9952 39.5164 52.7589 40.4154 53.1966C41.1251 53.542 41.7523 53.7041 42.3309 53.6544C43.8644 53.0129 45.3303 52.2205 46.7069 51.2887C45.0784 50.8762 43.477 49.9653 42.0745 48.8055C42.7122 48.3949 43.333 47.9509 43.9384 47.4836C45.1314 48.3747 46.4528 49.0218 47.5785 49.2414C48.2882 49.38 48.8781 49.3803 49.3766 49.2121C50.9237 47.8304 52.2961 46.2649 53.4636 44.5504C51.7403 44.6588 49.8863 44.1948 48.179 43.4078C48.6618 42.8321 49.1242 42.2371 49.5595 41.6207C50.8831 42.161 52.2709 42.4394 53.361 42.3639C54.1073 42.3124 54.6695 42.1469 55.0857 41.8183C55.9341 40.1621 56.5961 38.4168 57.0596 36.6145C57.0203 36.6289 56.9819 36.645 56.9424 36.6584C55.4945 37.1561 53.8225 37.2119 52.1853 36.9661C52.4836 36.2755 52.75 35.5717 52.9837 34.8567C54.1832 34.977 55.3614 34.8836 56.2284 34.5856C56.9039 34.3536 57.3592 34.0636 57.6309 33.6555C57.8649 31.8719 57.9067 30.0684 57.7555 28.2759C57.7505 28.2792 57.7459 28.2835 57.7409 28.2869C56.6897 28.9793 55.4007 29.3982 54.064 29.5943C54.13 28.8557 54.1643 28.1075 54.1592 27.353C55.0873 27.1677 55.9416 26.8471 56.5357 26.4557C56.9568 26.1785 57.2325 25.9162 57.3892 25.6317C57.0514 23.8748 56.5246 22.1595 55.818 20.5159C55.1914 21.1686 54.3961 21.683 53.5255 22.0796C53.3549 21.3568 53.152 20.6419 52.9176 19.9372C53.4807 19.6427 53.9655 19.2969 54.2762 18.963C54.5355 18.6846 54.6749 18.4767 54.7231 18.2857C54.0271 17.0298 53.2258 15.8353 52.3278 14.715C52.0182 15.1598 51.6329 15.5564 51.2037 15.9126C50.8574 15.2493 50.486 14.5994 50.0904 13.9643C50.3492 13.7104 50.5537 13.4533 50.6726 13.2389C50.7357 13.1252 50.7804 13.0448 50.8081 12.9789C50.5606 12.7223 50.3079 12.4708 50.0501 12.2246C48.0705 10.772 46.4638 10.0449 44.4105 9.38281L44.4104 9.38316ZM17.9073 16.5243L20.7309 31.7257H39.9609L42.6452 17.1358L35.8557 24.5772L30.5859 16.7039L25.3124 24.5773L17.9076 16.5245L17.9073 16.5243ZM21.1374 33.9157L21.5549 36.1677H39.1441L39.5581 33.9155H21.1376L21.1374 33.9157Z" fill="url(#paint0_linear_175_245)" fill-opacity="0.2"/>
<defs>
<linearGradient id="paint0_linear_175_245" x1="30.0924" y1="9.38281" x2="30.0924" y2="53.6632" gradientUnits="userSpaceOnUse">
<stop/>
<stop offset="1" stop-opacity="0"/>
</linearGradient>
</defs>
</svg>
