<svg width="61" height="61" viewBox="0 0 61 61" fill="none" xmlns="http://www.w3.org/2000/svg">
<path d="M11.1623 2.31055L11.1431 20.6332C11.5022 20.6926 11.8706 20.7949 12.2435 20.941C16.5204 22.6175 20.9404 23.5701 25.3526 23.9261L30.4387 16.8461L35.3977 23.7492C39.7112 23.2655 43.9016 22.2841 47.8158 20.9261C48.2557 20.7736 48.6792 20.6707 49.0835 20.6214L49.262 2.31066L40.3768 13.5082L36.3826 2.3109L30.0868 14.4679L23.7913 2.3109L19.6379 13.5082L11.1629 2.3109H11.1622L11.1623 2.31055ZM30.4387 20.6L27.0829 25.2711L30.4385 29.9422L33.7944 25.2711L30.4387 20.6ZM10.5009 22.7633C10.2463 22.7539 10.0509 22.7954 9.91357 22.8526C9.63877 22.9671 9.54173 23.1092 9.50388 23.3443C9.4283 23.8142 9.83494 25.0259 12.2027 25.8474C17.0894 27.5429 22.0772 28.6304 27.0595 28.9919L24.9794 26.0969C20.4357 25.712 15.8751 24.717 11.4443 22.9802C11.0696 22.8334 10.7556 22.7727 10.5009 22.7633ZM49.5566 22.7855C49.3039 22.7916 48.965 22.8455 48.5338 22.9953C44.5984 24.3605 40.3908 25.3643 36.0506 25.8835L33.7931 29.0262C38.5306 28.7213 43.2188 27.7036 47.7642 25.8669C49.629 25.1134 50.279 23.7798 50.2673 23.2463C50.2612 22.9796 50.2347 22.9456 50.0619 22.8627C49.9754 22.8213 49.8092 22.7795 49.5566 22.7855ZM47.4335 28.3447C42.453 30.2045 37.3249 31.1403 32.1684 31.2881L30.4387 33.6959L28.6952 31.269C23.4235 31.0645 18.1507 30.0702 13.0032 28.4206C11.5056 31.7616 10.7837 35.5855 10.706 39.3706C15.1029 41.4211 17.9874 44.0367 19.5602 46.9445C21.0757 49.7457 21.3431 52.7715 20.7457 55.6262C21.6504 56.2129 22.6354 56.6977 23.673 57.083L24.3242 51.4709L26.4996 51.7234L25.8041 57.7182C26.9256 57.9772 28.0826 58.1319 29.2467 58.1848V51.7782H31.4369V58.1638C32.5974 58.089 33.7461 57.9144 34.8535 57.6383L34.1672 51.7234L36.3426 51.4708L36.9797 56.9613C38.0047 56.5603 38.9723 56.0656 39.8515 55.4742C39.1767 52.6133 39.4097 49.6539 40.9073 46.9209C42.4636 44.081 45.3274 41.5303 49.6733 39.3869C49.6006 35.4581 48.8897 31.6382 47.4335 28.3443V28.3447ZM16.1757 33.8532C20.2306 33.8802 24.1922 35.2871 28.0536 38.1736C22.5922 42.058 12.8434 42.2015 15.3634 33.8663C15.6347 33.8558 15.9055 33.8514 16.1758 33.8534L16.1757 33.8532ZM44.6318 33.8532C44.9021 33.8513 45.1728 33.8558 45.4439 33.8661C47.9641 42.2014 38.2153 42.0579 32.7539 38.1736C36.6152 35.2872 40.5769 33.8802 44.6318 33.8533V33.8532ZM30.2355 39.7074C31.6148 42.2533 32.4847 44.7995 33.2082 47.3455H27.2625C27.798 44.7995 28.8761 42.2537 30.2355 39.7072V39.7074Z" fill="#FB5D2C"/>
<path d="M11.1623 2.31055L11.1431 20.6332C11.5022 20.6926 11.8706 20.7949 12.2435 20.941C16.5204 22.6175 20.9404 23.5701 25.3526 23.9261L30.4387 16.8461L35.3977 23.7492C39.7112 23.2655 43.9016 22.2841 47.8158 20.9261C48.2557 20.7736 48.6792 20.6707 49.0835 20.6214L49.262 2.31066L40.3768 13.5082L36.3826 2.3109L30.0868 14.4679L23.7913 2.3109L19.6379 13.5082L11.1629 2.3109H11.1622L11.1623 2.31055ZM30.4387 20.6L27.0829 25.2711L30.4385 29.9422L33.7944 25.2711L30.4387 20.6ZM10.5009 22.7633C10.2463 22.7539 10.0509 22.7954 9.91357 22.8526C9.63877 22.9671 9.54173 23.1092 9.50388 23.3443C9.4283 23.8142 9.83494 25.0259 12.2027 25.8474C17.0894 27.5429 22.0772 28.6304 27.0595 28.9919L24.9794 26.0969C20.4357 25.712 15.8751 24.717 11.4443 22.9802C11.0696 22.8334 10.7556 22.7727 10.5009 22.7633ZM49.5566 22.7855C49.3039 22.7916 48.965 22.8455 48.5338 22.9953C44.5984 24.3605 40.3908 25.3643 36.0506 25.8835L33.7931 29.0262C38.5306 28.7213 43.2188 27.7036 47.7642 25.8669C49.629 25.1134 50.279 23.7798 50.2673 23.2463C50.2612 22.9796 50.2347 22.9456 50.0619 22.8627C49.9754 22.8213 49.8092 22.7795 49.5566 22.7855ZM47.4335 28.3447C42.453 30.2045 37.3249 31.1403 32.1684 31.2881L30.4387 33.6959L28.6952 31.269C23.4235 31.0645 18.1507 30.0702 13.0032 28.4206C11.5056 31.7616 10.7837 35.5855 10.706 39.3706C15.1029 41.4211 17.9874 44.0367 19.5602 46.9445C21.0757 49.7457 21.3431 52.7715 20.7457 55.6262C21.6504 56.2129 22.6354 56.6977 23.673 57.083L24.3242 51.4709L26.4996 51.7234L25.8041 57.7182C26.9256 57.9772 28.0826 58.1319 29.2467 58.1848V51.7782H31.4369V58.1638C32.5974 58.089 33.7461 57.9144 34.8535 57.6383L34.1672 51.7234L36.3426 51.4708L36.9797 56.9613C38.0047 56.5603 38.9723 56.0656 39.8515 55.4742C39.1767 52.6133 39.4097 49.6539 40.9073 46.9209C42.4636 44.081 45.3274 41.5303 49.6733 39.3869C49.6006 35.4581 48.8897 31.6382 47.4335 28.3443V28.3447ZM16.1757 33.8532C20.2306 33.8802 24.1922 35.2871 28.0536 38.1736C22.5922 42.058 12.8434 42.2015 15.3634 33.8663C15.6347 33.8558 15.9055 33.8514 16.1758 33.8534L16.1757 33.8532ZM44.6318 33.8532C44.9021 33.8513 45.1728 33.8558 45.4439 33.8661C47.9641 42.2014 38.2153 42.0579 32.7539 38.1736C36.6152 35.2872 40.5769 33.8802 44.6318 33.8533V33.8532ZM30.2355 39.7074C31.6148 42.2533 32.4847 44.7995 33.2082 47.3455H27.2625C27.798 44.7995 28.8761 42.2537 30.2355 39.7072V39.7074Z" fill="url(#paint0_linear_175_252)" fill-opacity="0.2"/>
<defs>
<linearGradient id="paint0_linear_175_252" x1="29.8815" y1="2.31055" x2="29.8815" y2="58.1848" gradientUnits="userSpaceOnUse">
<stop/>
<stop offset="1" stop-opacity="0"/>
</linearGradient>
</defs>
</svg>
