<svg width="61" height="61" viewBox="0 0 61 61" fill="none" xmlns="http://www.w3.org/2000/svg">
<path d="M22.8168 2.86914L20.9723 3.19492L22.5881 12.3801L24.4326 12.0552L22.8168 2.86914ZM33.2465 4.95742C32.4977 5.91133 32.2396 6.70469 32.2771 7.39961C32.3228 8.24453 32.801 9.10586 33.6705 10.0141C35.0006 11.4016 37.1697 12.7727 39.3084 14.1953L39.074 15.7959L38.6322 15.8898L37.6642 16.0914L37.6703 16.0984L21.9918 19.4969C21.6778 20.0828 21.5067 20.9945 21.611 21.8863C21.7094 22.7371 22.0492 23.4789 22.4313 23.8937L36.1232 20.9348L36.8017 22.5449L24.6635 30.6309C24.6249 31.1632 24.718 31.6969 24.9344 32.1848C24.9578 32.2398 24.9824 32.2926 25.0082 32.3465C25.0877 32.5092 25.1777 32.6666 25.2778 32.8176C25.7278 33.5113 26.3969 34.0398 26.9406 34.2414L39.6388 25.6867L40.826 26.9852L30.9028 39.1762C31.061 39.7164 31.5203 40.3914 32.1918 40.8977C32.8856 41.4238 33.7153 41.7109 34.3785 41.6992L44.0078 30.0531L45.5193 30.9543L40.5974 43.109C40.9291 43.566 41.5865 44.0301 42.3998 44.2809C43.247 44.541 44.1693 44.5398 44.8045 44.3383L51.5067 28.2156L51.5125 28.2004C52.361 26.0559 54.7938 24.7012 58.1055 23.6078C58.2531 23.5589 58.4053 23.5117 58.5571 23.464V7.40746C55.5875 9.81863 52.2766 11.776 48.7326 13.2155L48.7267 13.2214C49.4011 13.7573 50.0249 14.3539 50.5903 15.0038C51.7492 16.3702 52.4406 17.9839 52.2309 19.7733L50.4731 19.5682C50.616 18.3237 50.1939 17.2784 49.2388 16.1522C48.2838 15.0261 46.7873 13.8929 44.9885 12.7221C41.5912 10.5143 37.1488 8.16133 33.2465 4.95742ZM9.67541 8.66406L8.44939 10.082L15.7232 16.3703L16.949 14.9523L9.67518 8.66406H9.67541ZM4.51447 21.591L4.47814 23.466L12.6974 23.6301L12.7303 21.7492L4.51447 21.591ZM15.2922 28.1075C14.684 28.1116 14.0892 28.2863 13.5752 28.6116C13.0613 28.9369 12.649 29.3999 12.385 29.9478C12.121 30.4957 12.0159 31.1067 12.0818 31.7114C12.1476 32.316 12.3817 32.8901 12.7574 33.3684L6.56268 52.2719C5.87854 52.4476 5.26979 52.8403 4.82773 53.3912C4.38566 53.9421 4.13411 54.6215 4.11079 55.3274C4.08747 56.0334 4.29364 56.7279 4.69838 57.3067C5.10312 57.8856 5.68462 58.3177 6.35567 58.5381C7.02673 58.7586 7.75116 58.7555 8.42035 58.5295C9.08953 58.3034 9.66738 57.8665 10.0673 57.2842C10.4671 56.702 10.6675 56.0058 10.6382 55.3001C10.609 54.5943 10.3518 53.9171 9.9051 53.3699L16.0821 34.5191C16.7755 34.3506 17.3942 33.9587 17.8429 33.4038C18.2916 32.8489 18.5452 32.1618 18.5648 31.4484C18.5844 30.7351 18.3688 30.0351 17.9513 29.4564C17.5337 28.8777 16.9374 28.4524 16.2543 28.2461C15.9424 28.1519 15.618 28.1052 15.2922 28.1075ZM2.77588 32.7883V38.7903L4.5051 39.3554C4.63248 39.3938 4.75089 39.4573 4.85337 39.5422C4.95585 39.6271 5.04032 39.7316 5.10184 39.8496C5.16336 39.9676 5.20067 40.0967 5.21158 40.2293C5.2225 40.3619 5.20679 40.4953 5.1654 40.6218C5.124 40.7483 5.05774 40.8652 4.97052 40.9657C4.8833 41.0661 4.77687 41.1482 4.65749 41.2069C4.53811 41.2657 4.40819 41.3 4.27536 41.3079C4.14253 41.3157 4.00947 41.2969 3.884 41.2526L2.77588 40.8905V47.1319L5.47307 48.0167L9.71643 35.0686L2.77588 32.7883ZM16.2659 39.9109L13.6151 47.9969L15.2722 48.5395L17.9229 40.4535L16.2659 39.9109ZM19.7042 41.0383L17.0534 49.1242L18.7151 49.6668L21.3659 41.5809L19.7042 41.0383ZM23.1425 42.1645L20.4917 50.2504L22.1487 50.793L24.7995 42.707L23.1425 42.1645ZM26.5913 43.2906L23.9405 51.3766L25.5976 51.9189L28.2483 43.833L26.5913 43.2906ZM30.0202 44.418L27.3694 52.5039L29.0358 53.0441L31.6866 44.9582L30.0202 44.418ZM33.469 45.5441L30.8183 53.6301L32.4753 54.1727L35.1261 46.0867L33.469 45.5441ZM36.9038 46.6703L34.253 54.7563L35.9101 55.2988L38.5608 47.2129L36.9038 46.6703ZM40.6409 46.8543L37.2132 57.3156C37.9076 57.571 38.6463 57.6839 39.3853 57.6474C40.1243 57.611 40.8484 57.4261 41.5143 57.1037C42.1803 56.7813 42.7744 56.328 43.2613 55.7709C43.7482 55.2138 44.1179 54.5644 44.3483 53.8613C44.5787 53.1582 44.665 52.4159 44.6022 51.6787C44.5394 50.9414 44.3287 50.2244 43.9826 49.5705C43.6366 48.9165 43.1624 48.3389 42.5882 47.8723C42.0141 47.4056 41.3518 47.0594 40.6409 46.8543Z" fill="#FB5D2C"/>
<path d="M22.8168 2.86914L20.9723 3.19492L22.5881 12.3801L24.4326 12.0552L22.8168 2.86914ZM33.2465 4.95742C32.4977 5.91133 32.2396 6.70469 32.2771 7.39961C32.3228 8.24453 32.801 9.10586 33.6705 10.0141C35.0006 11.4016 37.1697 12.7727 39.3084 14.1953L39.074 15.7959L38.6322 15.8898L37.6642 16.0914L37.6703 16.0984L21.9918 19.4969C21.6778 20.0828 21.5067 20.9945 21.611 21.8863C21.7094 22.7371 22.0492 23.4789 22.4313 23.8937L36.1232 20.9348L36.8017 22.5449L24.6635 30.6309C24.6249 31.1632 24.718 31.6969 24.9344 32.1848C24.9578 32.2398 24.9824 32.2926 25.0082 32.3465C25.0877 32.5092 25.1777 32.6666 25.2778 32.8176C25.7278 33.5113 26.3969 34.0398 26.9406 34.2414L39.6388 25.6867L40.826 26.9852L30.9028 39.1762C31.061 39.7164 31.5203 40.3914 32.1918 40.8977C32.8856 41.4238 33.7153 41.7109 34.3785 41.6992L44.0078 30.0531L45.5193 30.9543L40.5974 43.109C40.9291 43.566 41.5865 44.0301 42.3998 44.2809C43.247 44.541 44.1693 44.5398 44.8045 44.3383L51.5067 28.2156L51.5125 28.2004C52.361 26.0559 54.7938 24.7012 58.1055 23.6078C58.2531 23.5589 58.4053 23.5117 58.5571 23.464V7.40746C55.5875 9.81863 52.2766 11.776 48.7326 13.2155L48.7267 13.2214C49.4011 13.7573 50.0249 14.3539 50.5903 15.0038C51.7492 16.3702 52.4406 17.9839 52.2309 19.7733L50.4731 19.5682C50.616 18.3237 50.1939 17.2784 49.2388 16.1522C48.2838 15.0261 46.7873 13.8929 44.9885 12.7221C41.5912 10.5143 37.1488 8.16133 33.2465 4.95742ZM9.67541 8.66406L8.44939 10.082L15.7232 16.3703L16.949 14.9523L9.67518 8.66406H9.67541ZM4.51447 21.591L4.47814 23.466L12.6974 23.6301L12.7303 21.7492L4.51447 21.591ZM15.2922 28.1075C14.684 28.1116 14.0892 28.2863 13.5752 28.6116C13.0613 28.9369 12.649 29.3999 12.385 29.9478C12.121 30.4957 12.0159 31.1067 12.0818 31.7114C12.1476 32.316 12.3817 32.8901 12.7574 33.3684L6.56268 52.2719C5.87854 52.4476 5.26979 52.8403 4.82773 53.3912C4.38566 53.9421 4.13411 54.6215 4.11079 55.3274C4.08747 56.0334 4.29364 56.7279 4.69838 57.3067C5.10312 57.8856 5.68462 58.3177 6.35567 58.5381C7.02673 58.7586 7.75116 58.7555 8.42035 58.5295C9.08953 58.3034 9.66738 57.8665 10.0673 57.2842C10.4671 56.702 10.6675 56.0058 10.6382 55.3001C10.609 54.5943 10.3518 53.9171 9.9051 53.3699L16.0821 34.5191C16.7755 34.3506 17.3942 33.9587 17.8429 33.4038C18.2916 32.8489 18.5452 32.1618 18.5648 31.4484C18.5844 30.7351 18.3688 30.0351 17.9513 29.4564C17.5337 28.8777 16.9374 28.4524 16.2543 28.2461C15.9424 28.1519 15.618 28.1052 15.2922 28.1075ZM2.77588 32.7883V38.7903L4.5051 39.3554C4.63248 39.3938 4.75089 39.4573 4.85337 39.5422C4.95585 39.6271 5.04032 39.7316 5.10184 39.8496C5.16336 39.9676 5.20067 40.0967 5.21158 40.2293C5.2225 40.3619 5.20679 40.4953 5.1654 40.6218C5.124 40.7483 5.05774 40.8652 4.97052 40.9657C4.8833 41.0661 4.77687 41.1482 4.65749 41.2069C4.53811 41.2657 4.40819 41.3 4.27536 41.3079C4.14253 41.3157 4.00947 41.2969 3.884 41.2526L2.77588 40.8905V47.1319L5.47307 48.0167L9.71643 35.0686L2.77588 32.7883ZM16.2659 39.9109L13.6151 47.9969L15.2722 48.5395L17.9229 40.4535L16.2659 39.9109ZM19.7042 41.0383L17.0534 49.1242L18.7151 49.6668L21.3659 41.5809L19.7042 41.0383ZM23.1425 42.1645L20.4917 50.2504L22.1487 50.793L24.7995 42.707L23.1425 42.1645ZM26.5913 43.2906L23.9405 51.3766L25.5976 51.9189L28.2483 43.833L26.5913 43.2906ZM30.0202 44.418L27.3694 52.5039L29.0358 53.0441L31.6866 44.9582L30.0202 44.418ZM33.469 45.5441L30.8183 53.6301L32.4753 54.1727L35.1261 46.0867L33.469 45.5441ZM36.9038 46.6703L34.253 54.7563L35.9101 55.2988L38.5608 47.2129L36.9038 46.6703ZM40.6409 46.8543L37.2132 57.3156C37.9076 57.571 38.6463 57.6839 39.3853 57.6474C40.1243 57.611 40.8484 57.4261 41.5143 57.1037C42.1803 56.7813 42.7744 56.328 43.2613 55.7709C43.7482 55.2138 44.1179 54.5644 44.3483 53.8613C44.5787 53.1582 44.665 52.4159 44.6022 51.6787C44.5394 50.9414 44.3287 50.2244 43.9826 49.5705C43.6366 48.9165 43.1624 48.3389 42.5882 47.8723C42.0141 47.4056 41.3518 47.0594 40.6409 46.8543Z" fill="url(#paint0_linear_175_259)" fill-opacity="0.2"/>
<defs>
<linearGradient id="paint0_linear_175_259" x1="30.6665" y1="2.86914" x2="30.6665" y2="58.7013" gradientUnits="userSpaceOnUse">
<stop/>
<stop offset="1" stop-opacity="0"/>
</linearGradient>
</defs>
</svg>
