<svg width="61" height="61" viewBox="0 0 61 61" fill="none" xmlns="http://www.w3.org/2000/svg">
<path d="M56.0152 5.41231C55.8485 5.24573 55.6739 5.08734 55.4919 4.9377C55.1256 4.63559 54.7319 4.37485 54.3114 4.14669C54.1012 4.03255 53.9006 3.92403 53.6786 3.83028C53.6736 3.82805 53.659 3.83251 53.6544 3.83028C53.437 3.73899 53.2123 3.64524 52.985 3.57481C52.9808 3.57305 52.9656 3.57634 52.9607 3.57481C52.7334 3.50473 52.5153 3.45247 52.2792 3.4043C52.2733 3.40325 52.2604 3.40548 52.2549 3.4043C52.0185 3.35661 51.7931 3.30739 51.5491 3.28266C51.5431 3.28231 51.5303 3.28325 51.5247 3.28266C51.278 3.25827 51.0303 3.24607 50.7824 3.2461C50.7766 3.24575 50.7756 3.25829 50.7703 3.25829C50.5223 3.25827 50.2746 3.27047 50.0279 3.29485C50.022 3.2952 50.0211 3.28208 50.0158 3.28266C49.7718 3.30786 49.522 3.35614 49.2856 3.4043C49.2806 3.40489 49.2667 3.40325 49.2613 3.4043C49.0252 3.45305 48.8071 3.50427 48.5798 3.57469C48.5739 3.57634 48.5607 3.57305 48.5555 3.57469C48.3282 3.64571 48.1037 3.73852 47.8862 3.83016C47.8811 3.83251 47.8785 3.84024 47.874 3.84247C47.6567 3.93458 47.4474 4.02294 47.2412 4.1345C47.159 4.17891 47.0781 4.23317 46.9979 4.28052C46.6658 4.47669 46.3449 4.69395 46.0487 4.9377C45.865 5.08876 45.7058 5.25669 45.5375 5.4245C45.1988 5.76247 44.8813 6.12165 44.6126 6.51973C43.9074 7.56434 43.4558 8.80137 43.3592 10.1339L43.42 10.0975C43.4827 10.0604 43.5504 10.0104 43.6147 9.97571C43.7757 9.88864 43.9318 9.80426 44.1015 9.73231C44.1057 9.73067 44.122 9.73407 44.1258 9.73231C44.2956 9.66083 44.4715 9.60528 44.6491 9.54985C44.8266 9.49477 45.0124 9.45399 45.1967 9.41602C45.2009 9.41485 45.2043 9.40489 45.2089 9.40383C45.3935 9.3661 45.5783 9.32614 45.7687 9.30645C45.9591 9.28676 46.1695 9.29473 46.3649 9.29426L46.3771 9.28208C46.5728 9.28208 46.7463 9.28758 46.9369 9.30645H46.9612C47.1517 9.32579 47.3486 9.37876 47.5331 9.41602C47.5374 9.41708 47.5408 9.40266 47.5454 9.40383C47.7296 9.44133 47.9033 9.49524 48.0808 9.54985C48.085 9.55044 48.1013 9.5488 48.1051 9.54985C48.2826 9.60493 48.4465 9.67337 48.6162 9.7445C48.6204 9.74626 48.6247 9.73067 48.6284 9.73243C48.8026 9.80527 48.9731 9.8865 49.1395 9.97583C49.2452 10.0331 49.3413 10.0952 49.4437 10.1583L38.9172 20.6848C37.0717 19.1772 34.8053 18.1509 32.3215 17.8371V9.53766C34.7174 10.2464 36.4712 12.4474 36.4712 15.0748C36.4712 15.1547 36.477 15.2388 36.4712 15.3181C37.5286 13.9996 38.104 12.3596 38.1019 10.6695C38.1019 6.56755 34.7683 3.25829 30.6664 3.25829C26.5645 3.25829 23.2554 6.56766 23.2554 10.6695C23.2554 12.4331 23.8489 14.0547 24.8738 15.3302C24.8688 15.2454 24.8617 15.1606 24.8617 15.0748C24.8617 12.4474 26.6156 10.2464 29.0113 9.53766V17.8371C26.5276 18.1509 24.2613 19.1772 22.4157 20.6848L11.9013 10.1705C11.9376 10.1487 11.9742 10.1313 12.0108 10.1095C12.0735 10.0726 12.129 10.0104 12.1933 9.97583C12.3598 9.88683 12.5304 9.80561 12.7045 9.73243C12.7095 9.73067 12.7129 9.74626 12.7167 9.7445C12.8866 9.67302 13.0501 9.60528 13.2277 9.54985C13.2328 9.54926 13.2476 9.55091 13.2521 9.54985C13.4296 9.49477 13.6031 9.4418 13.7875 9.40383C13.7934 9.40325 13.7951 9.41708 13.7997 9.41602C13.9843 9.37829 14.1813 9.32614 14.3716 9.30645H14.396C14.591 9.28676 14.7677 9.29426 14.9678 9.29426C15.1635 9.29426 15.3735 9.28758 15.5642 9.30645C15.7549 9.32532 15.9392 9.36657 16.124 9.40372C16.1299 9.40442 16.1316 9.41485 16.1361 9.41602C16.3204 9.45352 16.5062 9.49524 16.6838 9.54985C16.8612 9.60493 17.0372 9.66118 17.2071 9.73231C17.2121 9.73407 17.2274 9.73067 17.2313 9.73231C17.4045 9.80555 17.554 9.88665 17.7182 9.97571C17.799 10.0195 17.8829 10.0747 17.9616 10.1217C17.9367 9.79886 17.8919 9.47782 17.8277 9.16044C17.729 8.67716 17.5771 8.21696 17.3896 7.77305C17.2014 7.32927 16.9878 6.91419 16.7203 6.51962C16.4517 6.12165 16.1343 5.76223 15.7954 5.42438C15.6272 5.2568 15.4681 5.08852 15.2844 4.9377C14.9133 4.63256 14.514 4.3636 14.0917 4.1345C13.8816 4.02036 13.6809 3.9361 13.4589 3.84247C13.4539 3.84012 13.4513 3.83251 13.4467 3.83028C13.2292 3.73899 13.0048 3.64524 12.7775 3.57469C12.7724 3.57294 12.758 3.57634 12.7531 3.57469C12.5258 3.50473 12.3076 3.45247 12.0717 3.4043C12.0666 3.40372 12.0527 3.40548 12.0473 3.4043C11.8109 3.35661 11.5611 3.30727 11.3172 3.28255C11.3113 3.28196 11.3104 3.29544 11.305 3.29473C11.0583 3.27038 10.8105 3.25822 10.5626 3.25829C10.3063 3.25829 10.0579 3.25712 9.80818 3.28255C9.80232 3.28313 9.7892 3.28196 9.78381 3.28255C9.53971 3.30786 9.31459 3.35602 9.07799 3.4043C9.07213 3.40489 9.05924 3.40313 9.05373 3.4043C8.81771 3.45305 8.59963 3.50415 8.37217 3.57469C8.36631 3.57634 8.35283 3.57294 8.34791 3.57469C8.12033 3.64571 7.89604 3.73852 7.67865 3.83016C7.67279 3.83239 7.65873 3.82794 7.65428 3.83016C7.43678 3.92239 7.2276 4.03501 7.02146 4.14657C6.9392 4.19098 6.85846 4.24524 6.77807 4.29259C6.44607 4.48887 6.13752 4.69395 5.84103 4.93759C5.65908 5.08727 5.48446 5.24566 5.31779 5.41219C4.81084 5.91762 4.37209 6.48153 4.02779 7.11587C3.43679 8.20704 3.12733 9.4284 3.12744 10.6693C3.12744 10.9257 3.15076 11.1741 3.17607 11.4238C3.27768 12.4227 3.55764 13.3679 4.01572 14.2105C4.36014 14.8464 4.79854 15.4075 5.30572 15.9144C5.97861 16.5872 6.77725 17.1441 7.66658 17.5206C8.10981 17.7075 8.5704 17.8502 9.04166 17.9466C9.359 18.0113 9.68011 18.056 10.0031 18.0804C9.95514 18.0025 9.90076 17.918 9.85705 17.837C9.49928 17.179 9.26713 16.463 9.18768 15.6831C9.16775 15.4881 9.16342 15.2748 9.16342 15.0747C9.16423 14.1055 9.40678 13.1518 9.86912 12.3C9.92242 12.2006 9.97929 12.1032 10.0396 12.008L20.566 22.5343C19.0584 24.3799 18.0322 26.6463 17.7183 29.1301H9.41912C10.1278 26.7342 12.3289 24.9804 14.9561 24.9805C15.0359 24.9805 15.1203 24.9771 15.1995 24.9804C13.881 23.923 12.2409 23.3477 10.5508 23.3497C6.44877 23.3497 3.13963 26.6832 3.13963 30.7853C3.13963 34.8873 6.44877 38.1962 10.5508 38.1962C12.3145 38.1962 13.9361 37.6028 15.2117 36.5777C15.1267 36.5816 15.0418 36.5899 14.9561 36.5899C12.3288 36.5899 10.1278 34.8361 9.419 32.4401H17.7185C18.0323 34.924 19.0585 37.1904 20.5661 39.0359L10.0396 49.5624C9.97519 49.4632 9.91433 49.3617 9.85717 49.2581C9.49928 48.6001 9.26713 47.8355 9.18779 47.0555C9.16787 46.8605 9.17561 46.6836 9.17561 46.4836C9.17561 45.4826 9.40986 44.5296 9.85717 43.709C9.89619 43.6366 9.94857 43.572 9.991 43.502C9.92842 43.5065 9.87076 43.5079 9.80842 43.5142C9.80256 43.5148 9.80174 43.5015 9.79623 43.502C9.55225 43.5273 9.30264 43.5755 9.06615 43.6238C9.06018 43.6243 9.0474 43.6226 9.04178 43.6238C8.80576 43.6725 8.58768 43.7236 8.36021 43.7941C8.35436 43.7958 8.34088 43.7924 8.33596 43.7941C8.10838 43.8652 7.88408 43.958 7.66658 44.0496C7.66072 44.0518 7.65896 44.0596 7.65439 44.0618C7.43689 44.1539 7.22783 44.2423 7.02158 44.3538C6.93932 44.3983 6.85869 44.4525 6.7783 44.4999C6.24041 44.8177 5.75748 45.2056 5.31791 45.6438C4.81107 46.1491 4.37232 46.7131 4.02803 47.3475C3.45533 48.3986 3.13975 49.6069 3.13975 50.8887C3.13975 51.1451 3.13881 51.3935 3.164 51.6434C3.26561 52.6422 3.56994 53.5873 4.02803 54.4301C4.37232 55.0657 4.81084 55.6268 5.31791 56.1338C5.99092 56.8066 6.78955 57.3635 7.67877 57.74C8.12204 57.9269 8.58267 58.0695 9.05396 58.1659C9.54625 58.2691 10.0477 58.3221 10.5507 58.3242C10.8069 58.3242 11.0552 58.301 11.3051 58.2756C11.311 58.275 11.3119 58.2884 11.3173 58.2878C11.5612 58.2624 11.8112 58.2145 12.0474 58.1661C12.0534 58.1656 12.0663 58.1672 12.0718 58.1661C12.5493 58.067 13.0073 57.9263 13.4469 57.7402C13.4527 57.7379 13.4545 57.7302 13.459 57.728C13.9027 57.5391 14.318 57.3265 14.7125 57.0588C14.9099 56.925 15.0891 56.7722 15.2723 56.6206C15.4542 56.4708 15.6288 56.3125 15.7955 56.1459C16.1348 55.8071 16.4405 55.4363 16.7083 55.0385C16.9758 54.643 17.2138 54.2298 17.4019 53.7852C17.5894 53.3406 17.7291 52.8694 17.8278 52.3858C17.8908 52.0778 17.9491 51.757 17.9739 51.4365C17.739 51.58 17.4875 51.729 17.2315 51.8381C17.2265 51.8398 17.211 51.8364 17.2073 51.8381C16.864 51.9834 16.5093 52.0772 16.1363 52.1545C16.1304 52.1551 16.1287 52.1656 16.1241 52.1667C15.9394 52.2045 15.7547 52.2442 15.5643 52.264C15.3693 52.2839 15.1559 52.2884 14.9559 52.2884C14.5634 52.2872 14.172 52.2464 13.7876 52.1666C13.4144 52.0901 13.0599 51.9706 12.7168 51.8259C12.4335 51.7072 12.1607 51.5647 11.9014 51.4L22.4157 40.8858C24.2612 42.3933 26.5276 43.4196 29.0115 43.7334V52.0328C26.6156 51.3199 24.8739 49.1108 24.8738 46.4836C24.8738 46.4011 24.8705 46.3219 24.8738 46.2402C23.8496 47.5119 23.2431 49.1257 23.2431 50.8889C23.2431 54.9907 26.5647 58.3122 30.6665 58.3122C34.7683 58.3122 38.1019 54.9785 38.1019 50.8767C38.1019 49.1218 37.4906 47.5214 36.4713 46.2524C36.4763 46.3282 36.459 46.4071 36.459 46.4836C36.459 49.1108 34.7173 51.3199 32.3214 52.0328V43.7332C34.8053 43.4194 37.0716 42.3932 38.9172 40.8856L49.4315 51.3998C49.1772 51.563 48.9077 51.719 48.6283 51.838C48.6241 51.8397 48.6199 51.8242 48.6161 51.8258C48.273 51.9711 47.9183 52.0891 47.5453 52.1665C47.541 52.1677 47.5376 52.1533 47.5331 52.1543C47.3485 52.1922 47.1516 52.2441 46.9612 52.2639H46.9368C46.7463 52.2833 46.5726 52.2879 46.377 52.2883C45.9721 52.2883 45.5783 52.2335 45.1966 52.1544C44.8235 52.0779 44.4688 51.9826 44.1257 51.838C43.8639 51.7272 43.6109 51.5716 43.3713 51.4243C43.4672 52.7564 43.9167 53.9912 44.6246 55.0385C44.8925 55.4362 45.1982 55.807 45.5374 56.1459C46.2104 56.819 46.9968 57.3635 47.886 57.74C48.3293 57.927 48.7899 58.0696 49.2612 58.166C49.7616 58.2703 50.2712 58.3233 50.7823 58.3242C51.0328 58.3236 51.2806 58.3125 51.5247 58.2877C51.5306 58.2873 51.5435 58.2882 51.549 58.2877C51.7929 58.2623 52.0184 58.2144 52.2548 58.166C52.2598 58.1654 52.2738 58.1671 52.2792 58.166C52.7568 58.0669 53.2148 57.9261 53.6542 57.7402C53.6593 57.7378 53.6737 57.7423 53.6785 57.7402C54.1222 57.5511 54.5375 57.3142 54.9319 57.0464C55.1293 56.9137 55.3202 56.7716 55.5039 56.6206C55.6876 56.4689 55.8468 56.302 56.0151 56.1338C57.3619 54.7872 58.1934 52.9443 58.1934 50.8888C58.1934 50.6324 58.1945 50.384 58.169 50.1342C58.0419 48.8862 57.6084 47.7254 56.9399 46.7391C55.7005 44.9032 53.6599 43.6425 51.3178 43.4777C51.7537 44.1931 52.056 45.0121 52.1451 45.8871C52.165 46.0821 52.1574 46.2833 52.1574 46.4836C52.1574 47.6115 51.8255 48.6506 51.269 49.538L40.7669 39.0359C42.2745 37.1904 43.3007 34.924 43.6145 32.4402H51.914C51.201 34.8361 48.9919 36.5777 46.3648 36.5777C46.2823 36.5777 46.203 36.581 46.1213 36.5777C47.3931 37.602 49.0069 38.2084 50.7701 38.2084C54.8719 38.2084 58.1933 34.887 58.1933 30.7852C58.1933 26.6834 54.8597 23.3496 50.7578 23.3496C49.003 23.3496 47.4025 23.9611 46.1336 24.9804C46.2093 24.9776 46.2883 24.9926 46.3648 24.9926C48.9919 24.9926 51.2012 26.7342 51.914 29.1301H43.6145C43.3007 26.6463 42.2744 24.3799 40.7669 22.5343L51.2812 12.0202C51.8355 12.9065 52.1695 13.9518 52.1695 15.0747C52.1695 16.1762 51.8522 17.2153 51.3178 18.0926C51.7053 18.0602 52.0913 17.9843 52.4616 17.8978C52.6436 17.8554 52.8083 17.8197 52.9849 17.764C53.6796 17.5453 54.3415 17.2398 54.9321 16.8391C55.1293 16.7056 55.3087 16.5526 55.4917 16.4011C55.6778 16.2473 55.8565 16.0849 56.0273 15.9143C56.3624 15.5795 56.664 15.2126 56.9278 14.8191C57.7299 13.6323 58.2056 12.2074 58.2056 10.6693C58.2056 9.13126 57.7299 7.70333 56.9278 6.51962C56.6599 6.12192 56.3543 5.75106 56.0151 5.41219L56.0152 5.41231ZM34.9378 26.5137C36.0313 27.607 36.7024 29.1183 36.7024 30.7852C36.7024 34.1187 34 36.821 30.6664 36.821C27.3328 36.821 24.6304 34.1187 24.6304 30.785C24.6304 27.4514 27.3328 24.7492 30.6664 24.7491C32.3331 24.7491 33.8443 25.4202 34.9379 26.5137" fill="#FB5D2C"/>
<path d="M56.0152 5.41231C55.8485 5.24573 55.6739 5.08734 55.4919 4.9377C55.1256 4.63559 54.7319 4.37485 54.3114 4.14669C54.1012 4.03255 53.9006 3.92403 53.6786 3.83028C53.6736 3.82805 53.659 3.83251 53.6544 3.83028C53.437 3.73899 53.2123 3.64524 52.985 3.57481C52.9808 3.57305 52.9656 3.57634 52.9607 3.57481C52.7334 3.50473 52.5153 3.45247 52.2792 3.4043C52.2733 3.40325 52.2604 3.40548 52.2549 3.4043C52.0185 3.35661 51.7931 3.30739 51.5491 3.28266C51.5431 3.28231 51.5303 3.28325 51.5247 3.28266C51.278 3.25827 51.0303 3.24607 50.7824 3.2461C50.7766 3.24575 50.7756 3.25829 50.7703 3.25829C50.5223 3.25827 50.2746 3.27047 50.0279 3.29485C50.022 3.2952 50.0211 3.28208 50.0158 3.28266C49.7718 3.30786 49.522 3.35614 49.2856 3.4043C49.2806 3.40489 49.2667 3.40325 49.2613 3.4043C49.0252 3.45305 48.8071 3.50427 48.5798 3.57469C48.5739 3.57634 48.5607 3.57305 48.5555 3.57469C48.3282 3.64571 48.1037 3.73852 47.8862 3.83016C47.8811 3.83251 47.8785 3.84024 47.874 3.84247C47.6567 3.93458 47.4474 4.02294 47.2412 4.1345C47.159 4.17891 47.0781 4.23317 46.9979 4.28052C46.6658 4.47669 46.3449 4.69395 46.0487 4.9377C45.865 5.08876 45.7058 5.25669 45.5375 5.4245C45.1988 5.76247 44.8813 6.12165 44.6126 6.51973C43.9074 7.56434 43.4558 8.80137 43.3592 10.1339L43.42 10.0975C43.4827 10.0604 43.5504 10.0104 43.6147 9.97571C43.7757 9.88864 43.9318 9.80426 44.1015 9.73231C44.1057 9.73067 44.122 9.73407 44.1258 9.73231C44.2956 9.66083 44.4715 9.60528 44.6491 9.54985C44.8266 9.49477 45.0124 9.45399 45.1967 9.41602C45.2009 9.41485 45.2043 9.40489 45.2089 9.40383C45.3935 9.3661 45.5783 9.32614 45.7687 9.30645C45.9591 9.28676 46.1695 9.29473 46.3649 9.29426L46.3771 9.28208C46.5728 9.28208 46.7463 9.28758 46.9369 9.30645H46.9612C47.1517 9.32579 47.3486 9.37876 47.5331 9.41602C47.5374 9.41708 47.5408 9.40266 47.5454 9.40383C47.7296 9.44133 47.9033 9.49524 48.0808 9.54985C48.085 9.55044 48.1013 9.5488 48.1051 9.54985C48.2826 9.60493 48.4465 9.67337 48.6162 9.7445C48.6204 9.74626 48.6247 9.73067 48.6284 9.73243C48.8026 9.80527 48.9731 9.8865 49.1395 9.97583C49.2452 10.0331 49.3413 10.0952 49.4437 10.1583L38.9172 20.6848C37.0717 19.1772 34.8053 18.1509 32.3215 17.8371V9.53766C34.7174 10.2464 36.4712 12.4474 36.4712 15.0748C36.4712 15.1547 36.477 15.2388 36.4712 15.3181C37.5286 13.9996 38.104 12.3596 38.1019 10.6695C38.1019 6.56755 34.7683 3.25829 30.6664 3.25829C26.5645 3.25829 23.2554 6.56766 23.2554 10.6695C23.2554 12.4331 23.8489 14.0547 24.8738 15.3302C24.8688 15.2454 24.8617 15.1606 24.8617 15.0748C24.8617 12.4474 26.6156 10.2464 29.0113 9.53766V17.8371C26.5276 18.1509 24.2613 19.1772 22.4157 20.6848L11.9013 10.1705C11.9376 10.1487 11.9742 10.1313 12.0108 10.1095C12.0735 10.0726 12.129 10.0104 12.1933 9.97583C12.3598 9.88683 12.5304 9.80561 12.7045 9.73243C12.7095 9.73067 12.7129 9.74626 12.7167 9.7445C12.8866 9.67302 13.0501 9.60528 13.2277 9.54985C13.2328 9.54926 13.2476 9.55091 13.2521 9.54985C13.4296 9.49477 13.6031 9.4418 13.7875 9.40383C13.7934 9.40325 13.7951 9.41708 13.7997 9.41602C13.9843 9.37829 14.1813 9.32614 14.3716 9.30645H14.396C14.591 9.28676 14.7677 9.29426 14.9678 9.29426C15.1635 9.29426 15.3735 9.28758 15.5642 9.30645C15.7549 9.32532 15.9392 9.36657 16.124 9.40372C16.1299 9.40442 16.1316 9.41485 16.1361 9.41602C16.3204 9.45352 16.5062 9.49524 16.6838 9.54985C16.8612 9.60493 17.0372 9.66118 17.2071 9.73231C17.2121 9.73407 17.2274 9.73067 17.2313 9.73231C17.4045 9.80555 17.554 9.88665 17.7182 9.97571C17.799 10.0195 17.8829 10.0747 17.9616 10.1217C17.9367 9.79886 17.8919 9.47782 17.8277 9.16044C17.729 8.67716 17.5771 8.21696 17.3896 7.77305C17.2014 7.32927 16.9878 6.91419 16.7203 6.51962C16.4517 6.12165 16.1343 5.76223 15.7954 5.42438C15.6272 5.2568 15.4681 5.08852 15.2844 4.9377C14.9133 4.63256 14.514 4.3636 14.0917 4.1345C13.8816 4.02036 13.6809 3.9361 13.4589 3.84247C13.4539 3.84012 13.4513 3.83251 13.4467 3.83028C13.2292 3.73899 13.0048 3.64524 12.7775 3.57469C12.7724 3.57294 12.758 3.57634 12.7531 3.57469C12.5258 3.50473 12.3076 3.45247 12.0717 3.4043C12.0666 3.40372 12.0527 3.40548 12.0473 3.4043C11.8109 3.35661 11.5611 3.30727 11.3172 3.28255C11.3113 3.28196 11.3104 3.29544 11.305 3.29473C11.0583 3.27038 10.8105 3.25822 10.5626 3.25829C10.3063 3.25829 10.0579 3.25712 9.80818 3.28255C9.80232 3.28313 9.7892 3.28196 9.78381 3.28255C9.53971 3.30786 9.31459 3.35602 9.07799 3.4043C9.07213 3.40489 9.05924 3.40313 9.05373 3.4043C8.81771 3.45305 8.59963 3.50415 8.37217 3.57469C8.36631 3.57634 8.35283 3.57294 8.34791 3.57469C8.12033 3.64571 7.89604 3.73852 7.67865 3.83016C7.67279 3.83239 7.65873 3.82794 7.65428 3.83016C7.43678 3.92239 7.2276 4.03501 7.02146 4.14657C6.9392 4.19098 6.85846 4.24524 6.77807 4.29259C6.44607 4.48887 6.13752 4.69395 5.84103 4.93759C5.65908 5.08727 5.48446 5.24566 5.31779 5.41219C4.81084 5.91762 4.37209 6.48153 4.02779 7.11587C3.43679 8.20704 3.12733 9.4284 3.12744 10.6693C3.12744 10.9257 3.15076 11.1741 3.17607 11.4238C3.27768 12.4227 3.55764 13.3679 4.01572 14.2105C4.36014 14.8464 4.79854 15.4075 5.30572 15.9144C5.97861 16.5872 6.77725 17.1441 7.66658 17.5206C8.10981 17.7075 8.5704 17.8502 9.04166 17.9466C9.359 18.0113 9.68011 18.056 10.0031 18.0804C9.95514 18.0025 9.90076 17.918 9.85705 17.837C9.49928 17.179 9.26713 16.463 9.18768 15.6831C9.16775 15.4881 9.16342 15.2748 9.16342 15.0747C9.16423 14.1055 9.40678 13.1518 9.86912 12.3C9.92242 12.2006 9.97929 12.1032 10.0396 12.008L20.566 22.5343C19.0584 24.3799 18.0322 26.6463 17.7183 29.1301H9.41912C10.1278 26.7342 12.3289 24.9804 14.9561 24.9805C15.0359 24.9805 15.1203 24.9771 15.1995 24.9804C13.881 23.923 12.2409 23.3477 10.5508 23.3497C6.44877 23.3497 3.13963 26.6832 3.13963 30.7853C3.13963 34.8873 6.44877 38.1962 10.5508 38.1962C12.3145 38.1962 13.9361 37.6028 15.2117 36.5777C15.1267 36.5816 15.0418 36.5899 14.9561 36.5899C12.3288 36.5899 10.1278 34.8361 9.419 32.4401H17.7185C18.0323 34.924 19.0585 37.1904 20.5661 39.0359L10.0396 49.5624C9.97519 49.4632 9.91433 49.3617 9.85717 49.2581C9.49928 48.6001 9.26713 47.8355 9.18779 47.0555C9.16787 46.8605 9.17561 46.6836 9.17561 46.4836C9.17561 45.4826 9.40986 44.5296 9.85717 43.709C9.89619 43.6366 9.94857 43.572 9.991 43.502C9.92842 43.5065 9.87076 43.5079 9.80842 43.5142C9.80256 43.5148 9.80174 43.5015 9.79623 43.502C9.55225 43.5273 9.30264 43.5755 9.06615 43.6238C9.06018 43.6243 9.0474 43.6226 9.04178 43.6238C8.80576 43.6725 8.58768 43.7236 8.36021 43.7941C8.35436 43.7958 8.34088 43.7924 8.33596 43.7941C8.10838 43.8652 7.88408 43.958 7.66658 44.0496C7.66072 44.0518 7.65896 44.0596 7.65439 44.0618C7.43689 44.1539 7.22783 44.2423 7.02158 44.3538C6.93932 44.3983 6.85869 44.4525 6.7783 44.4999C6.24041 44.8177 5.75748 45.2056 5.31791 45.6438C4.81107 46.1491 4.37232 46.7131 4.02803 47.3475C3.45533 48.3986 3.13975 49.6069 3.13975 50.8887C3.13975 51.1451 3.13881 51.3935 3.164 51.6434C3.26561 52.6422 3.56994 53.5873 4.02803 54.4301C4.37232 55.0657 4.81084 55.6268 5.31791 56.1338C5.99092 56.8066 6.78955 57.3635 7.67877 57.74C8.12204 57.9269 8.58267 58.0695 9.05396 58.1659C9.54625 58.2691 10.0477 58.3221 10.5507 58.3242C10.8069 58.3242 11.0552 58.301 11.3051 58.2756C11.311 58.275 11.3119 58.2884 11.3173 58.2878C11.5612 58.2624 11.8112 58.2145 12.0474 58.1661C12.0534 58.1656 12.0663 58.1672 12.0718 58.1661C12.5493 58.067 13.0073 57.9263 13.4469 57.7402C13.4527 57.7379 13.4545 57.7302 13.459 57.728C13.9027 57.5391 14.318 57.3265 14.7125 57.0588C14.9099 56.925 15.0891 56.7722 15.2723 56.6206C15.4542 56.4708 15.6288 56.3125 15.7955 56.1459C16.1348 55.8071 16.4405 55.4363 16.7083 55.0385C16.9758 54.643 17.2138 54.2298 17.4019 53.7852C17.5894 53.3406 17.7291 52.8694 17.8278 52.3858C17.8908 52.0778 17.9491 51.757 17.9739 51.4365C17.739 51.58 17.4875 51.729 17.2315 51.8381C17.2265 51.8398 17.211 51.8364 17.2073 51.8381C16.864 51.9834 16.5093 52.0772 16.1363 52.1545C16.1304 52.1551 16.1287 52.1656 16.1241 52.1667C15.9394 52.2045 15.7547 52.2442 15.5643 52.264C15.3693 52.2839 15.1559 52.2884 14.9559 52.2884C14.5634 52.2872 14.172 52.2464 13.7876 52.1666C13.4144 52.0901 13.0599 51.9706 12.7168 51.8259C12.4335 51.7072 12.1607 51.5647 11.9014 51.4L22.4157 40.8858C24.2612 42.3933 26.5276 43.4196 29.0115 43.7334V52.0328C26.6156 51.3199 24.8739 49.1108 24.8738 46.4836C24.8738 46.4011 24.8705 46.3219 24.8738 46.2402C23.8496 47.5119 23.2431 49.1257 23.2431 50.8889C23.2431 54.9907 26.5647 58.3122 30.6665 58.3122C34.7683 58.3122 38.1019 54.9785 38.1019 50.8767C38.1019 49.1218 37.4906 47.5214 36.4713 46.2524C36.4763 46.3282 36.459 46.4071 36.459 46.4836C36.459 49.1108 34.7173 51.3199 32.3214 52.0328V43.7332C34.8053 43.4194 37.0716 42.3932 38.9172 40.8856L49.4315 51.3998C49.1772 51.563 48.9077 51.719 48.6283 51.838C48.6241 51.8397 48.6199 51.8242 48.6161 51.8258C48.273 51.9711 47.9183 52.0891 47.5453 52.1665C47.541 52.1677 47.5376 52.1533 47.5331 52.1543C47.3485 52.1922 47.1516 52.2441 46.9612 52.2639H46.9368C46.7463 52.2833 46.5726 52.2879 46.377 52.2883C45.9721 52.2883 45.5783 52.2335 45.1966 52.1544C44.8235 52.0779 44.4688 51.9826 44.1257 51.838C43.8639 51.7272 43.6109 51.5716 43.3713 51.4243C43.4672 52.7564 43.9167 53.9912 44.6246 55.0385C44.8925 55.4362 45.1982 55.807 45.5374 56.1459C46.2104 56.819 46.9968 57.3635 47.886 57.74C48.3293 57.927 48.7899 58.0696 49.2612 58.166C49.7616 58.2703 50.2712 58.3233 50.7823 58.3242C51.0328 58.3236 51.2806 58.3125 51.5247 58.2877C51.5306 58.2873 51.5435 58.2882 51.549 58.2877C51.7929 58.2623 52.0184 58.2144 52.2548 58.166C52.2598 58.1654 52.2738 58.1671 52.2792 58.166C52.7568 58.0669 53.2148 57.9261 53.6542 57.7402C53.6593 57.7378 53.6737 57.7423 53.6785 57.7402C54.1222 57.5511 54.5375 57.3142 54.9319 57.0464C55.1293 56.9137 55.3202 56.7716 55.5039 56.6206C55.6876 56.4689 55.8468 56.302 56.0151 56.1338C57.3619 54.7872 58.1934 52.9443 58.1934 50.8888C58.1934 50.6324 58.1945 50.384 58.169 50.1342C58.0419 48.8862 57.6084 47.7254 56.9399 46.7391C55.7005 44.9032 53.6599 43.6425 51.3178 43.4777C51.7537 44.1931 52.056 45.0121 52.1451 45.8871C52.165 46.0821 52.1574 46.2833 52.1574 46.4836C52.1574 47.6115 51.8255 48.6506 51.269 49.538L40.7669 39.0359C42.2745 37.1904 43.3007 34.924 43.6145 32.4402H51.914C51.201 34.8361 48.9919 36.5777 46.3648 36.5777C46.2823 36.5777 46.203 36.581 46.1213 36.5777C47.3931 37.602 49.0069 38.2084 50.7701 38.2084C54.8719 38.2084 58.1933 34.887 58.1933 30.7852C58.1933 26.6834 54.8597 23.3496 50.7578 23.3496C49.003 23.3496 47.4025 23.9611 46.1336 24.9804C46.2093 24.9776 46.2883 24.9926 46.3648 24.9926C48.9919 24.9926 51.2012 26.7342 51.914 29.1301H43.6145C43.3007 26.6463 42.2744 24.3799 40.7669 22.5343L51.2812 12.0202C51.8355 12.9065 52.1695 13.9518 52.1695 15.0747C52.1695 16.1762 51.8522 17.2153 51.3178 18.0926C51.7053 18.0602 52.0913 17.9843 52.4616 17.8978C52.6436 17.8554 52.8083 17.8197 52.9849 17.764C53.6796 17.5453 54.3415 17.2398 54.9321 16.8391C55.1293 16.7056 55.3087 16.5526 55.4917 16.4011C55.6778 16.2473 55.8565 16.0849 56.0273 15.9143C56.3624 15.5795 56.664 15.2126 56.9278 14.8191C57.7299 13.6323 58.2056 12.2074 58.2056 10.6693C58.2056 9.13126 57.7299 7.70333 56.9278 6.51962C56.6599 6.12192 56.3543 5.75106 56.0151 5.41219L56.0152 5.41231ZM34.9378 26.5137C36.0313 27.607 36.7024 29.1183 36.7024 30.7852C36.7024 34.1187 34 36.821 30.6664 36.821C27.3328 36.821 24.6304 34.1187 24.6304 30.785C24.6304 27.4514 27.3328 24.7492 30.6664 24.7491C32.3331 24.7491 33.8443 25.4202 34.9379 26.5137" fill="url(#paint0_linear_175_237)" fill-opacity="0.2"/>
<defs>
<linearGradient id="paint0_linear_175_237" x1="30.6665" y1="3.24609" x2="30.6665" y2="58.3242" gradientUnits="userSpaceOnUse">
<stop/>
<stop offset="1" stop-opacity="0"/>
</linearGradient>
</defs>
</svg>
