<svg width="61" height="61" viewBox="0 0 61 61" fill="none" xmlns="http://www.w3.org/2000/svg">
<path d="M36.8153 3.78906L34.12 5.03781L30.6592 19.4556L37.7858 6.33438L36.8155 3.78906H36.8153ZM7.32061 6.64902C8.66217 15.6651 12.996 23.222 19.0614 29.5885C20.7391 28.4531 22.4079 27.3044 24.0674 26.1426C21.471 22.9417 19.6319 19.5562 18.9588 16.0316C14.9494 12.9271 11.0354 9.77664 7.32072 6.64914L7.32061 6.64902ZM53.0788 6.65277C49.4557 9.7041 45.6427 12.7779 41.7368 15.8119C40.5259 22.6362 34.9297 28.9456 27.8831 34.4007C20.2152 40.3367 10.7081 45.2914 2.65502 48.6279L2.65479 52.4693C13.6294 48.4695 25.5708 42.9328 35.1011 35.2906C44.363 27.8635 51.3115 18.5253 53.0788 6.65277ZM25.404 7.74777L24.4079 11.0071L29.1761 19.5688L28.3704 9.57156L25.404 7.74777ZM38.844 18.0384C26.5118 27.4428 13.4884 36.2778 2.65502 42.4937V46.2549C10.3797 42.9837 19.3636 38.2264 26.543 32.6684C32.3824 28.148 36.9518 23.1161 38.8442 18.0384H38.844ZM21.9031 18.2909C22.7644 20.5046 24.1331 22.7065 25.8874 24.8608C26.7113 24.2772 27.5346 23.6854 28.3594 23.092C26.198 21.5151 24.0395 19.9139 21.9031 18.2909ZM41.6602 32.3939C40.5383 33.5039 39.3656 34.5722 38.1556 35.6055C44.5908 39.9759 51.8932 43.7097 58.3008 46.405V42.7615C53.161 39.8332 47.5075 36.301 41.6602 32.3939ZM36.3978 37.0592C35.0325 38.1514 33.6209 39.1982 32.1755 40.2051C40.4168 45.4943 49.6751 49.5537 58.3007 52.6709V48.7779C51.4033 45.9393 43.4062 41.8959 36.3976 37.0592H36.3978ZM29.5276 43.1568L24.115 52.3267L25.0306 55.0915L28.2825 53.7621L29.5276 43.1568ZM31.3844 43.252L37.4047 55.5127L41.6786 56.7174L41.2646 52.9712L31.3844 43.252Z" fill="#FB5D2C"/>
<path d="M36.8153 3.78906L34.12 5.03781L30.6592 19.4556L37.7858 6.33438L36.8155 3.78906H36.8153ZM7.32061 6.64902C8.66217 15.6651 12.996 23.222 19.0614 29.5885C20.7391 28.4531 22.4079 27.3044 24.0674 26.1426C21.471 22.9417 19.6319 19.5562 18.9588 16.0316C14.9494 12.9271 11.0354 9.77664 7.32072 6.64914L7.32061 6.64902ZM53.0788 6.65277C49.4557 9.7041 45.6427 12.7779 41.7368 15.8119C40.5259 22.6362 34.9297 28.9456 27.8831 34.4007C20.2152 40.3367 10.7081 45.2914 2.65502 48.6279L2.65479 52.4693C13.6294 48.4695 25.5708 42.9328 35.1011 35.2906C44.363 27.8635 51.3115 18.5253 53.0788 6.65277ZM25.404 7.74777L24.4079 11.0071L29.1761 19.5688L28.3704 9.57156L25.404 7.74777ZM38.844 18.0384C26.5118 27.4428 13.4884 36.2778 2.65502 42.4937V46.2549C10.3797 42.9837 19.3636 38.2264 26.543 32.6684C32.3824 28.148 36.9518 23.1161 38.8442 18.0384H38.844ZM21.9031 18.2909C22.7644 20.5046 24.1331 22.7065 25.8874 24.8608C26.7113 24.2772 27.5346 23.6854 28.3594 23.092C26.198 21.5151 24.0395 19.9139 21.9031 18.2909ZM41.6602 32.3939C40.5383 33.5039 39.3656 34.5722 38.1556 35.6055C44.5908 39.9759 51.8932 43.7097 58.3008 46.405V42.7615C53.161 39.8332 47.5075 36.301 41.6602 32.3939ZM36.3978 37.0592C35.0325 38.1514 33.6209 39.1982 32.1755 40.2051C40.4168 45.4943 49.6751 49.5537 58.3007 52.6709V48.7779C51.4033 45.9393 43.4062 41.8959 36.3976 37.0592H36.3978ZM29.5276 43.1568L24.115 52.3267L25.0306 55.0915L28.2825 53.7621L29.5276 43.1568ZM31.3844 43.252L37.4047 55.5127L41.6786 56.7174L41.2646 52.9712L31.3844 43.252Z" fill="url(#paint0_linear_175_230)" fill-opacity="0.2"/>
<defs>
<linearGradient id="paint0_linear_175_230" x1="30.4778" y1="3.78906" x2="30.4778" y2="56.7174" gradientUnits="userSpaceOnUse">
<stop/>
<stop offset="1" stop-opacity="0"/>
</linearGradient>
</defs>
</svg>
