<svg width="64" height="61" viewBox="0 0 64 61" fill="none" xmlns="http://www.w3.org/2000/svg">
<path d="M55.9788 0.785156C53.6376 0.785156 51.7064 2.71637 51.7064 5.07087V5.24283C50.3836 5.65288 49.0608 6.08939 47.7513 6.56558C46.9709 5.48092 45.7143 4.77987 44.2989 4.77987C41.9444 4.77987 40.0132 6.71108 40.0132 9.05235C40.0132 9.29045 40.0397 9.52854 40.0661 9.75341C38.7963 10.3619 37.5397 10.9968 36.3095 11.6714C35.5423 10.9439 34.4974 10.4809 33.3598 10.4809C31.0185 10.4809 29.0873 12.4121 29.0873 14.7534C29.0873 15.2031 29.1534 15.6397 29.2857 16.0497C28.0026 16.9624 26.7593 17.9148 25.5423 18.9068C24.9735 18.6291 24.3386 18.4703 23.664 18.4703C21.3228 18.4703 19.3915 20.4016 19.3915 22.7428C19.3915 23.2984 19.4974 23.8275 19.6958 24.3169C18.5847 25.4809 17.5132 26.6846 16.4815 27.9412C16.0185 27.7825 15.5291 27.6899 15.0132 27.6899C12.672 27.6899 10.7381 29.6211 10.7381 31.9624C10.7381 32.9545 11.0847 33.8672 11.6534 34.5947C10.8836 35.7984 10.1296 37.0418 9.41799 38.3248C9.14021 38.2719 8.84921 38.2455 8.55423 38.2455C6.20635 38.2455 4.28042 40.1635 4.28042 42.518C4.28042 43.8143 4.87037 44.9783 5.79365 45.7719C5.34656 46.8169 4.9127 47.8883 4.49868 48.9862C4.42725 48.973 4.35317 48.973 4.28042 48.973C1.93254 48.973 0 50.9042 0 53.2587C0 54.7402 0.77381 56.0497 1.93651 56.8301C1.5754 58.1132 1.23545 59.4359 0.914021 60.7852H3.4537C3.72222 59.674 4.00529 58.6026 4.30159 57.5312C6.63889 57.518 8.55423 55.6 8.55423 53.2587C8.55423 51.8566 7.86508 50.6 6.80952 49.8195C7.20106 48.7746 7.6045 47.7561 8.02513 46.764C8.19841 46.7772 8.37566 46.7904 8.55423 46.7904C10.8968 46.7904 12.8307 44.8592 12.8307 42.518C12.8307 41.3275 12.3413 40.2561 11.5476 39.4756C12.209 38.2852 12.8968 37.1211 13.5979 35.9968C14.0476 36.1555 14.5238 36.2481 15.0132 36.2481C17.3677 36.2481 19.2989 34.3169 19.2989 31.9624C19.2989 30.9836 18.955 30.0841 18.3995 29.3566C19.2989 28.2719 20.2249 27.227 21.1772 26.2084C21.8783 26.7243 22.7381 27.0153 23.664 27.0153C26.0185 27.0153 27.9497 25.0973 27.9497 22.7428C27.9497 21.936 27.7116 21.1688 27.3148 20.5206C28.3862 19.6476 29.4841 18.8275 30.6085 18.0206C31.3624 18.6555 32.3148 19.0391 33.3598 19.0391C35.7143 19.0391 37.6455 17.1079 37.6455 14.7666C37.6455 14.4095 37.5926 14.0656 37.5132 13.7481C38.6905 13.1 39.8942 12.4915 41.1243 11.9227C41.9048 12.7825 43.0423 13.3381 44.2857 13.3381C46.6402 13.3381 48.5714 11.4068 48.5714 9.05235V8.85394C49.8677 8.39098 51.1772 7.95447 52.5132 7.55764C53.2937 8.6423 54.5635 9.34336 55.9788 9.34336C58.1746 9.34336 60 7.66346 60.2381 5.52061C61.2037 5.30897 62.1693 5.09733 63.1482 4.91214V2.39891C62.0238 2.61055 60.8862 2.84865 59.7751 3.09997C59.0609 1.72431 57.6191 0.785156 55.9788 0.785156ZM55.9788 3.2587C56.9974 3.2587 57.791 4.05235 57.791 5.07087C57.791 6.07616 56.9974 6.86981 55.9788 6.86981C54.9735 6.86981 54.1799 6.07616 54.1799 5.07087C54.1799 4.05235 54.9735 3.2587 55.9788 3.2587ZM44.2989 7.25341C45.3042 7.25341 46.0979 8.04706 46.0979 9.05235C46.0979 10.0709 45.3042 10.8645 44.2989 10.8645C43.2804 10.8645 42.4868 10.0709 42.4868 9.05235C42.4868 8.04706 43.2804 7.25341 44.2989 7.25341ZM63.1482 8.90685C61.0582 9.25076 59.4709 11.1423 59.5635 13.3116C59.5635 13.4042 59.5767 13.4968 59.5899 13.5894C58.7698 13.7878 57.9497 13.9994 57.1296 14.2375C56.336 12.9942 54.9206 12.1873 53.3598 12.2534C51.0053 12.346 49.1534 14.3566 49.2593 16.7111V16.8169C48.5847 17.0815 47.9101 17.346 47.2487 17.6238C46.4418 16.4994 45.0926 15.7852 43.6111 15.8513C41.2698 15.9439 39.418 17.9545 39.5106 20.309C39.5238 20.6661 39.5899 21.0233 39.6958 21.3672C38.8095 21.8698 37.9365 22.3989 37.0767 22.9545C36.2566 22.1211 35.1058 21.6185 33.8492 21.6714C31.5079 21.7772 29.6561 23.7878 29.7487 26.1291C29.7884 26.8301 29.9868 27.4915 30.3175 28.0735C29.6296 28.6688 28.9683 29.2904 28.3069 29.9386C27.6323 29.5418 26.8386 29.3301 25.9921 29.3698C23.6508 29.4624 21.7989 31.473 21.9048 33.8143C21.9444 34.7402 22.2751 35.5867 22.8042 36.2613C22.2354 37.0418 21.6799 37.8354 21.1376 38.6555C20.6481 38.4836 20.119 38.4042 19.5767 38.4307C17.2222 38.5232 15.3704 40.5338 15.4762 42.8751C15.5291 44.1449 16.1376 45.2693 17.0635 46.01C16.6931 46.8037 16.3492 47.5973 16.0053 48.4174C15.7937 48.4042 15.5688 48.391 15.3439 48.391C12.9894 48.4968 11.1508 50.4941 11.2434 52.8486C11.3095 54.3301 12.1296 55.6132 13.3201 56.3275C12.9233 57.7693 12.5794 59.2508 12.2487 60.7852H14.7751C15.0529 59.4624 15.3704 58.1926 15.7143 56.9492C18.0423 56.8434 19.8942 54.8328 19.7884 52.4915C19.7354 51.2481 19.1534 50.137 18.254 49.383C18.5847 48.5629 18.9418 47.7428 19.2989 46.9492C19.5106 46.9756 19.709 46.9756 19.9206 46.9756C22.2751 46.8698 24.1138 44.8725 24.0212 42.518C23.9815 41.592 23.6376 40.7322 23.0952 40.0444C23.6243 39.2243 24.1799 38.4439 24.7487 37.6635C25.2513 37.8486 25.7937 37.9412 26.3492 37.9148C28.6905 37.809 30.5423 35.8116 30.4497 33.4571C30.4233 32.809 30.2381 32.2005 29.9471 31.6449C30.6217 30.9836 31.3228 30.3486 32.0238 29.727C32.672 30.0709 33.4259 30.2561 34.2064 30.2296C36.5476 30.1238 38.3995 28.1132 38.3069 25.7719C38.2937 25.5338 38.2672 25.2957 38.2143 25.0576C39.127 24.4756 40.0529 23.9068 41.0053 23.3645C41.8122 24.0524 42.8439 24.4492 43.9683 24.3963C46.3095 24.3037 48.1614 22.2931 48.0688 19.9518V19.9254C48.7434 19.6344 49.4312 19.3698 50.1191 19.1053C50.9392 20.1767 52.2619 20.8645 53.7037 20.7984C55.9656 20.7058 57.7778 18.8407 57.8042 16.6053C58.7169 16.3539 59.6429 16.1158 60.5688 15.8777C61.2169 16.6449 62.1296 17.1873 63.1482 17.346V14.8063C62.5132 14.5418 62.0635 13.9465 62.037 13.2058C61.9974 12.4121 62.4603 11.7375 63.1482 11.4598V8.90685ZM33.3598 12.9545C34.3783 12.9545 35.172 13.7481 35.172 14.7666C35.172 15.7719 34.3783 16.5656 33.3598 16.5656C32.3545 16.5656 31.5608 15.7719 31.5608 14.7666C31.5608 13.7481 32.3545 12.9545 33.3598 12.9545ZM53.4524 14.727C54.4709 14.6873 55.291 15.4412 55.3439 16.4598C55.3836 17.4651 54.6164 18.2852 53.6111 18.3248C52.5926 18.3777 51.7725 17.6106 51.7328 16.6053C51.6931 15.5867 52.4471 14.7666 53.4524 14.727ZM43.7169 18.3248C44.7222 18.2852 45.5556 19.0391 45.5952 20.0444C45.6349 21.0629 44.8677 21.883 43.8624 21.9227C42.8571 21.9756 42.0238 21.2084 41.9841 20.2031C41.9444 19.1846 42.6984 18.3645 43.7169 18.3248ZM61.9312 20.2957C59.7884 20.3883 58.0688 22.0682 57.8571 24.1449C56.627 24.5021 55.4233 24.8857 54.246 25.2957C53.4259 24.3301 52.1825 23.7349 50.8333 23.801C48.4788 23.8936 46.6402 25.9042 46.7328 28.2455C46.7328 28.3513 46.746 28.4439 46.7593 28.5497C45.6614 29.1317 44.6032 29.7402 43.5714 30.4016C42.8042 29.846 41.8783 29.5285 40.873 29.5682C38.5317 29.674 36.6799 31.6846 36.7857 34.0259C36.7989 34.5153 36.9048 34.9783 37.0767 35.4148C36.0185 36.4201 35 37.4915 34.0476 38.6291C33.5053 38.4042 32.8968 38.2852 32.2751 38.3116C29.9339 38.4042 28.082 40.4148 28.1746 42.7693C28.2275 43.8407 28.6772 44.8063 29.3651 45.5338C28.6243 46.9095 27.9497 48.3513 27.3413 49.8725C24.0741 49.8725 23.1878 52.465 23.2011 54.3169C23.2672 55.6529 23.9418 56.8301 24.9339 57.5709C24.6958 58.6158 24.4841 59.6873 24.2989 60.7852H26.8122C26.9577 59.9783 27.1164 59.1846 27.2884 58.4174C27.4074 58.4307 27.5265 58.4174 27.6587 58.4174C30 58.3248 31.8519 56.3143 31.7593 53.973C31.6931 52.5047 30.8862 51.2349 29.7355 50.5206C30.2646 49.1979 30.8598 47.9545 31.5079 46.764C31.8651 46.8434 32.2487 46.883 32.6323 46.8566C34.9735 46.764 36.8254 44.7534 36.7328 42.4121C36.6931 41.5788 36.4153 40.8116 35.9656 40.1635C36.8122 39.1846 37.6984 38.2455 38.6243 37.3592C39.3651 37.8751 40.2646 38.1661 41.2302 38.1264C43.5847 38.0206 45.4233 36.0233 45.3307 33.6688C45.3175 33.219 45.2249 32.7825 45.0661 32.3725C45.9392 31.8301 46.8254 31.3143 47.7381 30.8248C48.5714 31.8037 49.8148 32.3989 51.1773 32.346C53.5185 32.2402 55.3704 30.2428 55.2778 27.8883C55.2778 27.7825 55.2646 27.6767 55.2513 27.5709C56.2566 27.2137 57.2884 26.883 58.3333 26.5788C59.0873 27.9809 60.5952 28.9201 62.2884 28.8407C62.5794 28.8407 62.8704 28.7878 63.1482 28.7217V26.0497C62.8836 26.2481 62.5529 26.3672 62.1825 26.3804C61.1773 26.4201 60.3439 25.6529 60.3042 24.6476C60.2646 23.6423 61.0185 22.809 62.037 22.7693C62.4603 22.7561 62.8439 22.8751 63.1482 23.1V20.428C62.6984 20.3222 62.3677 20.2957 61.9312 20.2957ZM23.664 20.9439C24.6825 20.9439 25.4762 21.7375 25.4762 22.7428C25.4762 23.7613 24.6825 24.5418 23.664 24.5418C22.6587 24.5418 21.8651 23.7613 21.8651 22.7428C21.8651 21.7375 22.6587 20.9439 23.664 20.9439ZM33.955 24.1449C34.9603 24.1053 35.7937 24.8592 35.8333 25.8777C35.873 26.883 35.1191 27.7164 34.1005 27.7561C33.0952 27.7957 32.2619 27.0285 32.2222 26.0233C32.1825 25.018 32.9497 24.1846 33.955 24.1449ZM50.9259 26.2613C51.9444 26.2217 52.7646 26.9889 52.8042 27.9942C52.8439 29.0127 52.0899 29.8328 51.0847 29.8725C50.0661 29.9121 49.246 29.1582 49.1931 28.1397C49.1534 27.1344 49.9206 26.301 50.9259 26.2613ZM15.0132 30.1635C16.0317 30.1635 16.8254 30.9571 16.8254 31.9624C16.8254 32.9809 16.0317 33.7746 15.0132 33.7746C14.0079 33.7746 13.2143 32.9809 13.2143 31.9624C13.2143 30.9571 14.0079 30.1635 15.0132 30.1635ZM26.0979 31.8301C27.1032 31.7904 27.9365 32.5576 27.9762 33.5629C28.0159 34.5682 27.2619 35.4016 26.2434 35.4412C25.2381 35.4809 24.4048 34.727 24.3651 33.7084C24.3254 32.7031 25.0794 31.883 26.0979 31.8301ZM40.9788 32.0418C41.9974 32.0021 42.8175 32.7693 42.8571 33.7746C42.9101 34.7799 42.1429 35.6132 41.1243 35.6529C40.1191 35.6926 39.2989 34.9386 39.2593 33.9201C39.2064 32.9148 39.9735 32.0947 40.9788 32.0418ZM57.2751 33.0471H57.0503C54.709 33.1397 52.8571 35.1502 52.9497 37.5047C52.963 37.5312 52.963 37.5709 52.963 37.6106C52.0503 37.9148 51.1772 38.2719 50.3307 38.6688C49.5503 38.0338 48.545 37.6635 47.4603 37.7031C45.1058 37.809 43.2672 39.8063 43.3598 42.1608C43.373 42.6106 43.4656 43.0338 43.6111 43.4439C42.6455 44.4492 41.7593 45.5471 40.9788 46.7243C40.5291 46.592 40.0529 46.5259 39.5635 46.5524C37.2222 46.6449 35.3704 48.6555 35.463 50.9968C35.5291 52.465 36.336 53.7349 37.5 54.4492C37.2751 55.2561 37.0767 56.0894 36.9048 56.936C34.9339 57.2005 33.4127 58.8143 33.2275 60.7852H35.7143C35.8862 59.9915 36.5608 59.4095 37.4074 59.3698C38.3069 59.3301 39.0608 59.9386 39.246 60.7852H41.746C41.6005 59.2508 40.6482 57.9677 39.3386 57.3195C39.4974 56.5524 39.6825 55.8116 39.881 55.0973H39.9206C42.2619 54.9915 44.1138 52.9942 44.0212 50.6397C43.9815 49.674 43.6111 48.7878 43.0291 48.0867C43.664 47.1344 44.3651 46.2613 45.1323 45.4412C45.873 45.9836 46.8122 46.301 47.8042 46.2481C50.1455 46.1555 51.9974 44.1449 51.9048 41.8037C51.8915 41.4333 51.8254 41.0762 51.7328 40.7455C52.4074 40.4412 53.1085 40.1635 53.836 39.9121C54.6561 40.9836 55.9656 41.6582 57.4074 41.592C59.3122 41.5127 60.8862 40.1767 61.3624 38.4174C61.9444 38.3645 62.5397 38.3381 63.1482 38.3116V35.8513C62.5265 35.8645 61.8915 35.9042 61.2831 35.9439C60.7011 34.264 59.1138 33.0603 57.2751 33.0471ZM57.1561 35.5206C58.1614 35.4809 58.9947 36.2349 59.0344 37.2402C59.0741 38.2587 58.3201 39.0788 57.3016 39.1317C56.2963 39.1714 55.4762 38.4042 55.4233 37.3989C55.3836 36.3804 56.1508 35.5603 57.1561 35.5206ZM47.5529 40.1767C48.5714 40.137 49.3915 40.891 49.4312 41.9095C49.4709 42.9148 48.7169 43.7349 47.7116 43.7878C46.6931 43.8275 45.873 43.0603 45.8201 42.055C45.7804 41.0365 46.5476 40.2164 47.5529 40.1767ZM8.55556 40.7058C9.56217 40.7058 10.3558 41.4994 10.3558 42.518C10.3558 43.5233 9.56217 44.3169 8.55556 44.3169C7.54365 44.3169 6.75397 43.5233 6.75397 42.518C6.75397 41.4994 7.54365 40.7058 8.55556 40.7058ZM32.381 40.7852C33.3862 40.7322 34.2196 41.4994 34.2593 42.518C34.2989 43.5233 33.545 44.3434 32.5265 44.383C31.5212 44.4359 30.6878 43.6688 30.6481 42.6635C30.6085 41.6449 31.3624 40.8248 32.381 40.7852ZM19.6693 40.891C20.6878 40.8513 21.5079 41.6185 21.5476 42.6238C21.6005 43.6291 20.8333 44.4624 19.828 44.5021C18.8095 44.5418 17.9894 43.7878 17.9497 42.7693C17.8968 41.764 18.664 40.9439 19.6693 40.891ZM61.9048 41.8963C59.9339 42.0285 58.2275 43.5497 57.963 45.5867C57.9101 45.9042 57.9101 46.2349 57.9365 46.5391C57.1958 46.8566 56.4683 47.227 55.7672 47.6767C55.1058 47.174 54.2857 46.8698 53.3995 46.8301C51.045 46.7375 49.0344 48.5894 48.9418 50.9307C48.8889 52.2005 49.418 53.3777 50.2778 54.1979C49.9074 55.0576 49.6164 55.9703 49.3915 56.9492C47.4868 57.2666 46.0053 58.8539 45.8333 60.7852H48.3333C48.4921 59.9915 49.1667 59.4095 50.0132 59.3698C50.9127 59.3301 51.6667 59.9386 51.8519 60.7852H54.3519C54.2064 59.2111 53.2011 57.8883 51.8386 57.2666C51.9974 56.5788 52.209 55.9174 52.4471 55.309C52.6455 55.3486 52.8439 55.3619 53.0423 55.3751C55.3836 55.4677 57.3942 53.6291 57.4868 51.2746C57.5132 50.7058 57.4206 50.1502 57.2355 49.6344C57.7513 49.3169 58.3069 49.0391 58.8492 48.8143C59.5238 49.6476 60.4894 50.2428 61.627 50.4016C62.1561 50.4677 62.672 50.4412 63.1482 50.3354V47.6899C62.8175 47.9016 62.3942 48.0074 61.9577 47.9412C60.9524 47.809 60.2778 46.9227 60.4101 45.9174C60.5423 44.9121 61.4418 44.2375 62.4339 44.3698C62.7116 44.4095 62.9497 44.5021 63.1482 44.6344V41.9889C62.7249 41.8963 62.3016 41.8566 61.9048 41.8963ZM39.6693 49.0127C40.6746 48.973 41.5079 49.727 41.5476 50.7455C41.5873 51.7508 40.8333 52.5841 39.8148 52.6238C38.8095 52.6635 37.9762 51.9095 37.9365 50.891C37.8968 49.8857 38.6508 49.0523 39.6693 49.0127ZM53.1085 49.3037C53.1614 49.2904 53.2275 49.3037 53.2937 49.3037C54.2989 49.3434 55.0661 50.1635 55.0265 51.182C54.9868 52.1873 54.1534 52.9545 53.1482 52.9148C52.1296 52.8619 51.3757 52.0418 51.4153 51.0233C51.455 50.0841 52.1825 49.3566 53.1085 49.3037ZM15.4497 50.8645C16.455 50.8248 17.2751 51.5788 17.3148 52.5973C17.3677 53.6026 16.6005 54.4227 15.5952 54.4756C14.5767 54.5153 13.7566 53.7481 13.7169 52.7428C13.664 51.7375 14.4312 50.9042 15.4497 50.8645ZM4.28042 51.4465C5.29233 51.4465 6.08333 52.2402 6.08333 53.2587C6.08333 54.264 5.29233 55.0576 4.28042 55.0576C3.26852 55.0576 2.47355 54.264 2.47355 53.2587C2.47355 52.2402 3.26852 51.4465 4.28042 51.4465ZM27.4074 52.346C28.4127 52.3063 29.246 53.0603 29.2857 54.0656C29.3254 55.0841 28.5714 55.9042 27.5529 55.9571C26.5476 55.9968 25.7143 55.2296 25.6746 54.2243C25.6349 53.2058 26.4021 52.3857 27.4074 52.346ZM62.09 55.5735C59.8413 55.6 57.963 57.3989 57.8571 59.674C57.8439 60.0576 57.8836 60.428 57.963 60.7852H60.5952C60.4101 60.4941 60.3175 60.1502 60.3307 59.7799C60.3704 58.7613 61.2037 58.0074 62.209 58.0471C62.5661 58.0603 62.8836 58.1793 63.1482 58.3645V55.7058C62.7513 55.6132 62.4603 55.5735 62.09 55.5735Z" fill="#FB5D2C"/>
<path d="M55.9788 0.785156C53.6376 0.785156 51.7064 2.71637 51.7064 5.07087V5.24283C50.3836 5.65288 49.0608 6.08939 47.7513 6.56558C46.9709 5.48092 45.7143 4.77987 44.2989 4.77987C41.9444 4.77987 40.0132 6.71108 40.0132 9.05235C40.0132 9.29045 40.0397 9.52854 40.0661 9.75341C38.7963 10.3619 37.5397 10.9968 36.3095 11.6714C35.5423 10.9439 34.4974 10.4809 33.3598 10.4809C31.0185 10.4809 29.0873 12.4121 29.0873 14.7534C29.0873 15.2031 29.1534 15.6397 29.2857 16.0497C28.0026 16.9624 26.7593 17.9148 25.5423 18.9068C24.9735 18.6291 24.3386 18.4703 23.664 18.4703C21.3228 18.4703 19.3915 20.4016 19.3915 22.7428C19.3915 23.2984 19.4974 23.8275 19.6958 24.3169C18.5847 25.4809 17.5132 26.6846 16.4815 27.9412C16.0185 27.7825 15.5291 27.6899 15.0132 27.6899C12.672 27.6899 10.7381 29.6211 10.7381 31.9624C10.7381 32.9545 11.0847 33.8672 11.6534 34.5947C10.8836 35.7984 10.1296 37.0418 9.41799 38.3248C9.14021 38.2719 8.84921 38.2455 8.55423 38.2455C6.20635 38.2455 4.28042 40.1635 4.28042 42.518C4.28042 43.8143 4.87037 44.9783 5.79365 45.7719C5.34656 46.8169 4.9127 47.8883 4.49868 48.9862C4.42725 48.973 4.35317 48.973 4.28042 48.973C1.93254 48.973 0 50.9042 0 53.2587C0 54.7402 0.77381 56.0497 1.93651 56.8301C1.5754 58.1132 1.23545 59.4359 0.914021 60.7852H3.4537C3.72222 59.674 4.00529 58.6026 4.30159 57.5312C6.63889 57.518 8.55423 55.6 8.55423 53.2587C8.55423 51.8566 7.86508 50.6 6.80952 49.8195C7.20106 48.7746 7.6045 47.7561 8.02513 46.764C8.19841 46.7772 8.37566 46.7904 8.55423 46.7904C10.8968 46.7904 12.8307 44.8592 12.8307 42.518C12.8307 41.3275 12.3413 40.2561 11.5476 39.4756C12.209 38.2852 12.8968 37.1211 13.5979 35.9968C14.0476 36.1555 14.5238 36.2481 15.0132 36.2481C17.3677 36.2481 19.2989 34.3169 19.2989 31.9624C19.2989 30.9836 18.955 30.0841 18.3995 29.3566C19.2989 28.2719 20.2249 27.227 21.1772 26.2084C21.8783 26.7243 22.7381 27.0153 23.664 27.0153C26.0185 27.0153 27.9497 25.0973 27.9497 22.7428C27.9497 21.936 27.7116 21.1688 27.3148 20.5206C28.3862 19.6476 29.4841 18.8275 30.6085 18.0206C31.3624 18.6555 32.3148 19.0391 33.3598 19.0391C35.7143 19.0391 37.6455 17.1079 37.6455 14.7666C37.6455 14.4095 37.5926 14.0656 37.5132 13.7481C38.6905 13.1 39.8942 12.4915 41.1243 11.9227C41.9048 12.7825 43.0423 13.3381 44.2857 13.3381C46.6402 13.3381 48.5714 11.4068 48.5714 9.05235V8.85394C49.8677 8.39098 51.1772 7.95447 52.5132 7.55764C53.2937 8.6423 54.5635 9.34336 55.9788 9.34336C58.1746 9.34336 60 7.66346 60.2381 5.52061C61.2037 5.30897 62.1693 5.09733 63.1482 4.91214V2.39891C62.0238 2.61055 60.8862 2.84865 59.7751 3.09997C59.0609 1.72431 57.6191 0.785156 55.9788 0.785156ZM55.9788 3.2587C56.9974 3.2587 57.791 4.05235 57.791 5.07087C57.791 6.07616 56.9974 6.86981 55.9788 6.86981C54.9735 6.86981 54.1799 6.07616 54.1799 5.07087C54.1799 4.05235 54.9735 3.2587 55.9788 3.2587ZM44.2989 7.25341C45.3042 7.25341 46.0979 8.04706 46.0979 9.05235C46.0979 10.0709 45.3042 10.8645 44.2989 10.8645C43.2804 10.8645 42.4868 10.0709 42.4868 9.05235C42.4868 8.04706 43.2804 7.25341 44.2989 7.25341ZM63.1482 8.90685C61.0582 9.25076 59.4709 11.1423 59.5635 13.3116C59.5635 13.4042 59.5767 13.4968 59.5899 13.5894C58.7698 13.7878 57.9497 13.9994 57.1296 14.2375C56.336 12.9942 54.9206 12.1873 53.3598 12.2534C51.0053 12.346 49.1534 14.3566 49.2593 16.7111V16.8169C48.5847 17.0815 47.9101 17.346 47.2487 17.6238C46.4418 16.4994 45.0926 15.7852 43.6111 15.8513C41.2698 15.9439 39.418 17.9545 39.5106 20.309C39.5238 20.6661 39.5899 21.0233 39.6958 21.3672C38.8095 21.8698 37.9365 22.3989 37.0767 22.9545C36.2566 22.1211 35.1058 21.6185 33.8492 21.6714C31.5079 21.7772 29.6561 23.7878 29.7487 26.1291C29.7884 26.8301 29.9868 27.4915 30.3175 28.0735C29.6296 28.6688 28.9683 29.2904 28.3069 29.9386C27.6323 29.5418 26.8386 29.3301 25.9921 29.3698C23.6508 29.4624 21.7989 31.473 21.9048 33.8143C21.9444 34.7402 22.2751 35.5867 22.8042 36.2613C22.2354 37.0418 21.6799 37.8354 21.1376 38.6555C20.6481 38.4836 20.119 38.4042 19.5767 38.4307C17.2222 38.5232 15.3704 40.5338 15.4762 42.8751C15.5291 44.1449 16.1376 45.2693 17.0635 46.01C16.6931 46.8037 16.3492 47.5973 16.0053 48.4174C15.7937 48.4042 15.5688 48.391 15.3439 48.391C12.9894 48.4968 11.1508 50.4941 11.2434 52.8486C11.3095 54.3301 12.1296 55.6132 13.3201 56.3275C12.9233 57.7693 12.5794 59.2508 12.2487 60.7852H14.7751C15.0529 59.4624 15.3704 58.1926 15.7143 56.9492C18.0423 56.8434 19.8942 54.8328 19.7884 52.4915C19.7354 51.2481 19.1534 50.137 18.254 49.383C18.5847 48.5629 18.9418 47.7428 19.2989 46.9492C19.5106 46.9756 19.709 46.9756 19.9206 46.9756C22.2751 46.8698 24.1138 44.8725 24.0212 42.518C23.9815 41.592 23.6376 40.7322 23.0952 40.0444C23.6243 39.2243 24.1799 38.4439 24.7487 37.6635C25.2513 37.8486 25.7937 37.9412 26.3492 37.9148C28.6905 37.809 30.5423 35.8116 30.4497 33.4571C30.4233 32.809 30.2381 32.2005 29.9471 31.6449C30.6217 30.9836 31.3228 30.3486 32.0238 29.727C32.672 30.0709 33.4259 30.2561 34.2064 30.2296C36.5476 30.1238 38.3995 28.1132 38.3069 25.7719C38.2937 25.5338 38.2672 25.2957 38.2143 25.0576C39.127 24.4756 40.0529 23.9068 41.0053 23.3645C41.8122 24.0524 42.8439 24.4492 43.9683 24.3963C46.3095 24.3037 48.1614 22.2931 48.0688 19.9518V19.9254C48.7434 19.6344 49.4312 19.3698 50.1191 19.1053C50.9392 20.1767 52.2619 20.8645 53.7037 20.7984C55.9656 20.7058 57.7778 18.8407 57.8042 16.6053C58.7169 16.3539 59.6429 16.1158 60.5688 15.8777C61.2169 16.6449 62.1296 17.1873 63.1482 17.346V14.8063C62.5132 14.5418 62.0635 13.9465 62.037 13.2058C61.9974 12.4121 62.4603 11.7375 63.1482 11.4598V8.90685ZM33.3598 12.9545C34.3783 12.9545 35.172 13.7481 35.172 14.7666C35.172 15.7719 34.3783 16.5656 33.3598 16.5656C32.3545 16.5656 31.5608 15.7719 31.5608 14.7666C31.5608 13.7481 32.3545 12.9545 33.3598 12.9545ZM53.4524 14.727C54.4709 14.6873 55.291 15.4412 55.3439 16.4598C55.3836 17.4651 54.6164 18.2852 53.6111 18.3248C52.5926 18.3777 51.7725 17.6106 51.7328 16.6053C51.6931 15.5867 52.4471 14.7666 53.4524 14.727ZM43.7169 18.3248C44.7222 18.2852 45.5556 19.0391 45.5952 20.0444C45.6349 21.0629 44.8677 21.883 43.8624 21.9227C42.8571 21.9756 42.0238 21.2084 41.9841 20.2031C41.9444 19.1846 42.6984 18.3645 43.7169 18.3248ZM61.9312 20.2957C59.7884 20.3883 58.0688 22.0682 57.8571 24.1449C56.627 24.5021 55.4233 24.8857 54.246 25.2957C53.4259 24.3301 52.1825 23.7349 50.8333 23.801C48.4788 23.8936 46.6402 25.9042 46.7328 28.2455C46.7328 28.3513 46.746 28.4439 46.7593 28.5497C45.6614 29.1317 44.6032 29.7402 43.5714 30.4016C42.8042 29.846 41.8783 29.5285 40.873 29.5682C38.5317 29.674 36.6799 31.6846 36.7857 34.0259C36.7989 34.5153 36.9048 34.9783 37.0767 35.4148C36.0185 36.4201 35 37.4915 34.0476 38.6291C33.5053 38.4042 32.8968 38.2852 32.2751 38.3116C29.9339 38.4042 28.082 40.4148 28.1746 42.7693C28.2275 43.8407 28.6772 44.8063 29.3651 45.5338C28.6243 46.9095 27.9497 48.3513 27.3413 49.8725C24.0741 49.8725 23.1878 52.465 23.2011 54.3169C23.2672 55.6529 23.9418 56.8301 24.9339 57.5709C24.6958 58.6158 24.4841 59.6873 24.2989 60.7852H26.8122C26.9577 59.9783 27.1164 59.1846 27.2884 58.4174C27.4074 58.4307 27.5265 58.4174 27.6587 58.4174C30 58.3248 31.8519 56.3143 31.7593 53.973C31.6931 52.5047 30.8862 51.2349 29.7355 50.5206C30.2646 49.1979 30.8598 47.9545 31.5079 46.764C31.8651 46.8434 32.2487 46.883 32.6323 46.8566C34.9735 46.764 36.8254 44.7534 36.7328 42.4121C36.6931 41.5788 36.4153 40.8116 35.9656 40.1635C36.8122 39.1846 37.6984 38.2455 38.6243 37.3592C39.3651 37.8751 40.2646 38.1661 41.2302 38.1264C43.5847 38.0206 45.4233 36.0233 45.3307 33.6688C45.3175 33.219 45.2249 32.7825 45.0661 32.3725C45.9392 31.8301 46.8254 31.3143 47.7381 30.8248C48.5714 31.8037 49.8148 32.3989 51.1773 32.346C53.5185 32.2402 55.3704 30.2428 55.2778 27.8883C55.2778 27.7825 55.2646 27.6767 55.2513 27.5709C56.2566 27.2137 57.2884 26.883 58.3333 26.5788C59.0873 27.9809 60.5952 28.9201 62.2884 28.8407C62.5794 28.8407 62.8704 28.7878 63.1482 28.7217V26.0497C62.8836 26.2481 62.5529 26.3672 62.1825 26.3804C61.1773 26.4201 60.3439 25.6529 60.3042 24.6476C60.2646 23.6423 61.0185 22.809 62.037 22.7693C62.4603 22.7561 62.8439 22.8751 63.1482 23.1V20.428C62.6984 20.3222 62.3677 20.2957 61.9312 20.2957ZM23.664 20.9439C24.6825 20.9439 25.4762 21.7375 25.4762 22.7428C25.4762 23.7613 24.6825 24.5418 23.664 24.5418C22.6587 24.5418 21.8651 23.7613 21.8651 22.7428C21.8651 21.7375 22.6587 20.9439 23.664 20.9439ZM33.955 24.1449C34.9603 24.1053 35.7937 24.8592 35.8333 25.8777C35.873 26.883 35.1191 27.7164 34.1005 27.7561C33.0952 27.7957 32.2619 27.0285 32.2222 26.0233C32.1825 25.018 32.9497 24.1846 33.955 24.1449ZM50.9259 26.2613C51.9444 26.2217 52.7646 26.9889 52.8042 27.9942C52.8439 29.0127 52.0899 29.8328 51.0847 29.8725C50.0661 29.9121 49.246 29.1582 49.1931 28.1397C49.1534 27.1344 49.9206 26.301 50.9259 26.2613ZM15.0132 30.1635C16.0317 30.1635 16.8254 30.9571 16.8254 31.9624C16.8254 32.9809 16.0317 33.7746 15.0132 33.7746C14.0079 33.7746 13.2143 32.9809 13.2143 31.9624C13.2143 30.9571 14.0079 30.1635 15.0132 30.1635ZM26.0979 31.8301C27.1032 31.7904 27.9365 32.5576 27.9762 33.5629C28.0159 34.5682 27.2619 35.4016 26.2434 35.4412C25.2381 35.4809 24.4048 34.727 24.3651 33.7084C24.3254 32.7031 25.0794 31.883 26.0979 31.8301ZM40.9788 32.0418C41.9974 32.0021 42.8175 32.7693 42.8571 33.7746C42.9101 34.7799 42.1429 35.6132 41.1243 35.6529C40.1191 35.6926 39.2989 34.9386 39.2593 33.9201C39.2064 32.9148 39.9735 32.0947 40.9788 32.0418ZM57.2751 33.0471H57.0503C54.709 33.1397 52.8571 35.1502 52.9497 37.5047C52.963 37.5312 52.963 37.5709 52.963 37.6106C52.0503 37.9148 51.1772 38.2719 50.3307 38.6688C49.5503 38.0338 48.545 37.6635 47.4603 37.7031C45.1058 37.809 43.2672 39.8063 43.3598 42.1608C43.373 42.6106 43.4656 43.0338 43.6111 43.4439C42.6455 44.4492 41.7593 45.5471 40.9788 46.7243C40.5291 46.592 40.0529 46.5259 39.5635 46.5524C37.2222 46.6449 35.3704 48.6555 35.463 50.9968C35.5291 52.465 36.336 53.7349 37.5 54.4492C37.2751 55.2561 37.0767 56.0894 36.9048 56.936C34.9339 57.2005 33.4127 58.8143 33.2275 60.7852H35.7143C35.8862 59.9915 36.5608 59.4095 37.4074 59.3698C38.3069 59.3301 39.0608 59.9386 39.246 60.7852H41.746C41.6005 59.2508 40.6482 57.9677 39.3386 57.3195C39.4974 56.5524 39.6825 55.8116 39.881 55.0973H39.9206C42.2619 54.9915 44.1138 52.9942 44.0212 50.6397C43.9815 49.674 43.6111 48.7878 43.0291 48.0867C43.664 47.1344 44.3651 46.2613 45.1323 45.4412C45.873 45.9836 46.8122 46.301 47.8042 46.2481C50.1455 46.1555 51.9974 44.1449 51.9048 41.8037C51.8915 41.4333 51.8254 41.0762 51.7328 40.7455C52.4074 40.4412 53.1085 40.1635 53.836 39.9121C54.6561 40.9836 55.9656 41.6582 57.4074 41.592C59.3122 41.5127 60.8862 40.1767 61.3624 38.4174C61.9444 38.3645 62.5397 38.3381 63.1482 38.3116V35.8513C62.5265 35.8645 61.8915 35.9042 61.2831 35.9439C60.7011 34.264 59.1138 33.0603 57.2751 33.0471ZM57.1561 35.5206C58.1614 35.4809 58.9947 36.2349 59.0344 37.2402C59.0741 38.2587 58.3201 39.0788 57.3016 39.1317C56.2963 39.1714 55.4762 38.4042 55.4233 37.3989C55.3836 36.3804 56.1508 35.5603 57.1561 35.5206ZM47.5529 40.1767C48.5714 40.137 49.3915 40.891 49.4312 41.9095C49.4709 42.9148 48.7169 43.7349 47.7116 43.7878C46.6931 43.8275 45.873 43.0603 45.8201 42.055C45.7804 41.0365 46.5476 40.2164 47.5529 40.1767ZM8.55556 40.7058C9.56217 40.7058 10.3558 41.4994 10.3558 42.518C10.3558 43.5233 9.56217 44.3169 8.55556 44.3169C7.54365 44.3169 6.75397 43.5233 6.75397 42.518C6.75397 41.4994 7.54365 40.7058 8.55556 40.7058ZM32.381 40.7852C33.3862 40.7322 34.2196 41.4994 34.2593 42.518C34.2989 43.5233 33.545 44.3434 32.5265 44.383C31.5212 44.4359 30.6878 43.6688 30.6481 42.6635C30.6085 41.6449 31.3624 40.8248 32.381 40.7852ZM19.6693 40.891C20.6878 40.8513 21.5079 41.6185 21.5476 42.6238C21.6005 43.6291 20.8333 44.4624 19.828 44.5021C18.8095 44.5418 17.9894 43.7878 17.9497 42.7693C17.8968 41.764 18.664 40.9439 19.6693 40.891ZM61.9048 41.8963C59.9339 42.0285 58.2275 43.5497 57.963 45.5867C57.9101 45.9042 57.9101 46.2349 57.9365 46.5391C57.1958 46.8566 56.4683 47.227 55.7672 47.6767C55.1058 47.174 54.2857 46.8698 53.3995 46.8301C51.045 46.7375 49.0344 48.5894 48.9418 50.9307C48.8889 52.2005 49.418 53.3777 50.2778 54.1979C49.9074 55.0576 49.6164 55.9703 49.3915 56.9492C47.4868 57.2666 46.0053 58.8539 45.8333 60.7852H48.3333C48.4921 59.9915 49.1667 59.4095 50.0132 59.3698C50.9127 59.3301 51.6667 59.9386 51.8519 60.7852H54.3519C54.2064 59.2111 53.2011 57.8883 51.8386 57.2666C51.9974 56.5788 52.209 55.9174 52.4471 55.309C52.6455 55.3486 52.8439 55.3619 53.0423 55.3751C55.3836 55.4677 57.3942 53.6291 57.4868 51.2746C57.5132 50.7058 57.4206 50.1502 57.2355 49.6344C57.7513 49.3169 58.3069 49.0391 58.8492 48.8143C59.5238 49.6476 60.4894 50.2428 61.627 50.4016C62.1561 50.4677 62.672 50.4412 63.1482 50.3354V47.6899C62.8175 47.9016 62.3942 48.0074 61.9577 47.9412C60.9524 47.809 60.2778 46.9227 60.4101 45.9174C60.5423 44.9121 61.4418 44.2375 62.4339 44.3698C62.7116 44.4095 62.9497 44.5021 63.1482 44.6344V41.9889C62.7249 41.8963 62.3016 41.8566 61.9048 41.8963ZM39.6693 49.0127C40.6746 48.973 41.5079 49.727 41.5476 50.7455C41.5873 51.7508 40.8333 52.5841 39.8148 52.6238C38.8095 52.6635 37.9762 51.9095 37.9365 50.891C37.8968 49.8857 38.6508 49.0523 39.6693 49.0127ZM53.1085 49.3037C53.1614 49.2904 53.2275 49.3037 53.2937 49.3037C54.2989 49.3434 55.0661 50.1635 55.0265 51.182C54.9868 52.1873 54.1534 52.9545 53.1482 52.9148C52.1296 52.8619 51.3757 52.0418 51.4153 51.0233C51.455 50.0841 52.1825 49.3566 53.1085 49.3037ZM15.4497 50.8645C16.455 50.8248 17.2751 51.5788 17.3148 52.5973C17.3677 53.6026 16.6005 54.4227 15.5952 54.4756C14.5767 54.5153 13.7566 53.7481 13.7169 52.7428C13.664 51.7375 14.4312 50.9042 15.4497 50.8645ZM4.28042 51.4465C5.29233 51.4465 6.08333 52.2402 6.08333 53.2587C6.08333 54.264 5.29233 55.0576 4.28042 55.0576C3.26852 55.0576 2.47355 54.264 2.47355 53.2587C2.47355 52.2402 3.26852 51.4465 4.28042 51.4465ZM27.4074 52.346C28.4127 52.3063 29.246 53.0603 29.2857 54.0656C29.3254 55.0841 28.5714 55.9042 27.5529 55.9571C26.5476 55.9968 25.7143 55.2296 25.6746 54.2243C25.6349 53.2058 26.4021 52.3857 27.4074 52.346ZM62.09 55.5735C59.8413 55.6 57.963 57.3989 57.8571 59.674C57.8439 60.0576 57.8836 60.428 57.963 60.7852H60.5952C60.4101 60.4941 60.3175 60.1502 60.3307 59.7799C60.3704 58.7613 61.2037 58.0074 62.209 58.0471C62.5661 58.0603 62.8836 58.1793 63.1482 58.3645V55.7058C62.7513 55.6132 62.4603 55.5735 62.09 55.5735Z" fill="url(#paint0_linear_175_224)" fill-opacity="0.2"/>
<defs>
<linearGradient id="paint0_linear_175_224" x1="31.5741" y1="0.785156" x2="31.5741" y2="60.7852" gradientUnits="userSpaceOnUse">
<stop/>
<stop offset="1" stop-opacity="0"/>
</linearGradient>
</defs>
</svg>
